M48
; DRILL file {KiCad (5.1.9)-1} date 08/24/21 14:53:54
; FORMAT={-:-/ absolute / inch / decimal}
; #@! TF.CreationDate,2021-08-24T14:53:54+02:00
; #@! TF.GenerationSoftware,Kicad,Pcbnew,(5.1.9)-1
FMAT,2
INCH
T1C0.0157
T2C0.0236
T3C0.0295
T4C0.0394
T5C0.0591
T6C0.0256
T7C0.0335
T8C0.0591
T9C0.0670
T10C0.1181
T11C0.1200
T12C0.1457
T13C0.1570
%
G90
G05
T1
X1.5634Y-3.4236
X1.5772Y-1.9937
X1.6366Y-1.9433
X1.639Y-3.2
X1.6429Y-3.0307
X1.6822Y-3.0286
X1.7067Y-2.7693
X1.7216Y-3.0297
X1.7433Y-3.2496
X1.752Y-3.3756
X1.7609Y-3.032
X1.7689Y-2.0839
X1.7694Y-2.3185
X1.8002Y-3.0306
X1.8395Y-3.0336
X1.8417Y-1.9854
X1.8789Y-3.033
X1.9156Y-1.9203
X1.9182Y-3.0308
X1.9228Y-2.2205
X1.926Y-2.113
X1.9531Y-3.0126
X1.9752Y-2.7059
X1.9772Y-3.3492
X1.9819Y-2.2791
X2.0516Y-2.3433
X2.1059Y-3.22
X2.115Y-1.92
X2.1188Y-2.6012
X2.1319Y-2.0992
X2.1421Y-2.2575
X2.173Y-3.2317
X2.174Y-2.9642
X2.1795Y-2.4106
X2.2311Y-2.2858
X2.2425Y-1.9846
X2.2579Y-2.7806
X2.2808Y-2.7198
X2.2972Y-2.778
X2.3094Y-2.3575
X2.3201Y-2.722
X2.3205Y-1.839
X2.3205Y-2.589
X2.3205Y-3.339
X2.3205Y-4.089
X2.3205Y-4.839
X2.3476Y-2.4626
X2.4165Y-2.9008
X2.4941Y-2.75
X2.6955Y-4.839
X2.7378Y-2.715
X2.8657Y-1.739
X2.8657Y-2.489
X2.8657Y-3.239
X2.8657Y-3.989
X2.8657Y-4.739
X2.8985Y-2.9631
X2.94Y-2.2
X2.94Y-2.95
X2.9465Y-4.4935
X2.95Y-3.7
X2.98Y-4.11
X2.99Y-2.49
X2.99Y-3.23
X2.99Y-3.98
X3.03Y-3.0423
X3.04Y-4.35
X3.0705Y-1.839
X3.0705Y-2.589
X3.0705Y-3.339
X3.0705Y-4.089
X3.0705Y-4.839
X3.08Y-3.05
X3.14Y-3.05
X3.2407Y-4.739
X3.6157Y-1.739
X3.6157Y-2.489
X3.6157Y-3.239
X3.6157Y-3.989
X3.6157Y-4.739
X3.68Y-2.2
X3.68Y-2.95
X3.69Y-3.7
X3.7Y-4.45
X3.73Y-4.63
X3.74Y-3.89
X3.8205Y-1.839
X3.8205Y-2.589
X3.8205Y-3.339
X3.8205Y-4.089
X3.8205Y-4.839
X4.2575Y-4.5177
X4.2937Y-2.9937
X4.3028Y-3.7445
X4.3657Y-1.739
X4.3657Y-2.489
X4.3657Y-3.239
X4.3657Y-3.989
X4.3657Y-4.739
X4.43Y-2.14
X4.5705Y-1.839
X4.5705Y-3.339
X4.5705Y-4.839
X4.578Y-2.0358
X4.6205Y-2.889
X4.6205Y-3.264
X4.6205Y-4.389
X4.6205Y-4.764
X5.1157Y-1.739
X5.1157Y-3.239
X5.1157Y-4.739
X5.1657Y-2.789
X5.1657Y-3.164
X5.1657Y-4.289
X5.1657Y-4.664
T3
X2.072Y-3.3902
X2.1508Y-3.3902
T4
X1.6898Y-2.5689
X1.7898Y-2.5689
X1.8898Y-2.5689
X1.9898Y-2.5689
X2.5197Y-1.6634
X2.5197Y-2.2343
X2.6181Y-2.2343
X2.7165Y-1.6634
X2.7165Y-2.2343
X4.7697Y-1.6634
X4.7697Y-2.2343
X4.8681Y-2.2343
X4.9665Y-1.6634
X4.9665Y-2.2343
T5
X2.3976Y-1.9602
X2.8386Y-1.9602
X4.6476Y-1.9602
X5.0886Y-1.9602
T6
X1.9031Y-1.802
X2.1307Y-1.802
T7
X1.5669Y-1.9346
X1.5669Y-2.0528
X1.5669Y-3.1669
X1.5669Y-3.285
T8
X2.3976Y-1.9177
X2.8386Y-1.9177
X4.6476Y-1.9177
X5.0886Y-1.9177
T9
X2.4181Y-1.939
X2.4181Y-2.689
X2.4181Y-3.439
X2.4181Y-4.189
X2.4181Y-4.939
X2.7931Y-4.939
X2.8181Y-1.939
X2.8181Y-2.689
X2.8181Y-3.439
X2.8181Y-4.189
X2.8181Y-4.939
X3.1681Y-1.939
X3.1681Y-2.689
X3.1681Y-3.439
X3.1681Y-4.189
X3.1681Y-4.939
X3.1931Y-4.939
X3.5681Y-1.939
X3.5681Y-2.689
X3.5681Y-3.439
X3.5681Y-4.189
X3.5681Y-4.939
X3.9181Y-1.939
X3.9181Y-2.689
X3.9181Y-3.439
X3.9181Y-4.189
X3.9181Y-4.939
X4.3181Y-1.939
X4.3181Y-2.689
X4.3181Y-3.439
X4.3181Y-4.189
X4.3181Y-4.939
X4.6681Y-1.939
X4.6681Y-2.689
X4.6681Y-3.064
X4.6681Y-3.439
X4.6681Y-4.189
X4.6681Y-4.564
X4.6681Y-4.939
X5.0681Y-1.939
X5.0681Y-2.689
X5.0681Y-3.064
X5.0681Y-3.439
X5.0681Y-4.189
X5.0681Y-4.564
X5.0681Y-4.939
T10
X2.4681Y-1.839
X2.4681Y-2.589
X2.4681Y-3.339
X2.4681Y-4.089
X2.4681Y-4.839
X2.7181Y-1.739
X2.7181Y-2.489
X2.7181Y-3.239
X2.7181Y-3.989
X2.7181Y-4.739
X2.8431Y-4.839
X3.0931Y-4.739
X3.2181Y-1.839
X3.2181Y-2.589
X3.2181Y-3.339
X3.2181Y-4.089
X3.2181Y-4.839
X3.4681Y-1.739
X3.4681Y-2.489
X3.4681Y-3.239
X3.4681Y-3.989
X3.4681Y-4.739
X3.9681Y-1.839
X3.9681Y-2.589
X3.9681Y-3.339
X3.9681Y-4.089
X3.9681Y-4.839
X4.2181Y-1.739
X4.2181Y-2.489
X4.2181Y-3.239
X4.2181Y-3.989
X4.2181Y-4.739
X4.7181Y-1.839
X4.7181Y-3.339
X4.7181Y-4.839
X4.7681Y-2.889
X4.7681Y-3.264
X4.7681Y-4.389
X4.7681Y-4.764
X4.9681Y-1.739
X4.9681Y-3.239
X4.9681Y-4.739
X5.0181Y-2.789
X5.0181Y-3.164
X5.0181Y-4.289
X5.0181Y-4.664
T11
X2.5246Y-5.214
X3.4616Y-5.214
X5.1431Y-2.5955
X5.1431Y-3.5325
X5.1431Y-4.0955
X5.1431Y-5.0325
T12
X1.628Y-1.7193
X1.628Y-5.1587
X5.2539Y-1.7193
X5.2539Y-5.1587
T13
X2.5246Y-4.614
X2.6181Y-1.939
X2.6181Y-2.689
X2.6181Y-3.439
X2.6181Y-4.189
X2.6181Y-4.939
X2.9931Y-4.939
X3.3681Y-1.939
X3.3681Y-2.689
X3.3681Y-3.439
X3.3681Y-4.189
X3.3681Y-4.939
X3.4616Y-4.614
X4.1181Y-1.939
X4.1181Y-2.689
X4.1181Y-3.439
X4.1181Y-4.189
X4.1181Y-4.939
X4.5431Y-2.5955
X4.5431Y-3.5325
X4.5431Y-4.0955
X4.5431Y-5.0325
X4.8681Y-1.939
X4.8681Y-2.689
X4.8681Y-3.064
X4.8681Y-3.439
X4.8681Y-4.189
X4.8681Y-4.564
X4.8681Y-4.939
T2
G00X1.8469Y-1.6701
M15
G01X1.8469Y-1.6465
M16
G05
G00X1.8469Y-1.8445
M15
G01X1.8469Y-1.8012
M16
G05
G00X2.187Y-1.6701
M15
G01X2.187Y-1.6465
M16
G05
G00X2.187Y-1.8445
M15
G01X2.187Y-1.8012
M16
G05
T0
M30
