%TF.GenerationSoftware,KiCad,Pcbnew,(5.1.9)-1*%
%TF.CreationDate,2021-08-24T14:53:50+02:00*%
%TF.ProjectId,unWired refernce,756e5769-7265-4642-9072-656665726e63,rev?*%
%TF.SameCoordinates,Original*%
%TF.FileFunction,Paste,Bot*%
%TF.FilePolarity,Positive*%
%FSLAX46Y46*%
G04 Gerber Fmt 4.6, Leading zero omitted, Abs format (unit mm)*
G04 Created by KiCad (PCBNEW (5.1.9)-1) date 2021-08-24 14:53:50*
%MOMM*%
%LPD*%
G01*
G04 APERTURE LIST*
%ADD10R,2.550000X2.500000*%
G04 APERTURE END LIST*
D10*
%TO.C,SW20*%
X116090000Y-122910000D03*
X129940000Y-120370000D03*
%TD*%
%TO.C,SW19*%
X97040000Y-122910000D03*
X110890000Y-120370000D03*
%TD*%
%TO.C,SW18*%
X77990000Y-122910000D03*
X91840000Y-120370000D03*
%TD*%
%TO.C,SW17*%
X58940000Y-122910000D03*
X72790000Y-120370000D03*
%TD*%
%TO.C,SW23*%
X68465000Y-122910000D03*
X82315000Y-120370000D03*
%TD*%
%TO.C,SW22*%
X131210000Y-118465000D03*
X117360000Y-121005000D03*
%TD*%
%TO.C,SW16*%
X117360000Y-111480000D03*
X131210000Y-108940000D03*
%TD*%
%TO.C,SW15*%
X97040000Y-103860000D03*
X110890000Y-101320000D03*
%TD*%
%TO.C,SW14*%
X77990000Y-103860000D03*
X91840000Y-101320000D03*
%TD*%
%TO.C,SW13*%
X58940000Y-103860000D03*
X72790000Y-101320000D03*
%TD*%
%TO.C,SW21*%
X131210000Y-80365000D03*
X117360000Y-82905000D03*
%TD*%
%TO.C,SW12*%
X116090000Y-84810000D03*
X129940000Y-82270000D03*
%TD*%
%TO.C,SW11*%
X97040000Y-84810000D03*
X110890000Y-82270000D03*
%TD*%
%TO.C,SW10*%
X77990000Y-84810000D03*
X91840000Y-82270000D03*
%TD*%
%TO.C,SW9*%
X58940000Y-84810000D03*
X72790000Y-82270000D03*
%TD*%
%TO.C,SW8*%
X131210000Y-70840000D03*
X117360000Y-73380000D03*
%TD*%
%TO.C,SW7*%
X97040000Y-65760000D03*
X110890000Y-63220000D03*
%TD*%
%TO.C,SW6*%
X77990000Y-65760000D03*
X91840000Y-63220000D03*
%TD*%
%TO.C,SW5*%
X58940000Y-65760000D03*
X72790000Y-63220000D03*
%TD*%
%TO.C,SW4*%
X116090000Y-46710000D03*
X129940000Y-44170000D03*
%TD*%
%TO.C,SW3*%
X97040000Y-46710000D03*
X110890000Y-44170000D03*
%TD*%
%TO.C,SW2*%
X77990000Y-46710000D03*
X91840000Y-44170000D03*
%TD*%
%TO.C,SW1*%
X58940000Y-46710000D03*
X72790000Y-44170000D03*
%TD*%
M02*
