%TF.GenerationSoftware,KiCad,Pcbnew,(5.1.9)-1*%
%TF.CreationDate,2021-08-24T14:53:50+02:00*%
%TF.ProjectId,unWired refernce,756e5769-7265-4642-9072-656665726e63,rev?*%
%TF.SameCoordinates,Original*%
%TF.FileFunction,Legend,Bot*%
%TF.FilePolarity,Positive*%
%FSLAX46Y46*%
G04 Gerber Fmt 4.6, Leading zero omitted, Abs format (unit mm)*
G04 Created by KiCad (PCBNEW (5.1.9)-1) date 2021-08-24 14:53:50*
%MOMM*%
%LPD*%
G01*
G04 APERTURE LIST*
%ADD10C,0.150000*%
G04 APERTURE END LIST*
D10*
%TO.C,SW20*%
X128730000Y-118465000D02*
X128730000Y-118846000D01*
X119840000Y-118465000D02*
X128730000Y-118465000D01*
X117300000Y-121005000D02*
X117300000Y-121386000D01*
X117681000Y-124815000D02*
X117300000Y-124815000D01*
X121185838Y-124815000D02*
X119459000Y-124815000D01*
X128730000Y-122910000D02*
X123650000Y-122910000D01*
X128730000Y-121894000D02*
X128730000Y-122910000D01*
X117300000Y-124434000D02*
X117300000Y-124815000D01*
X121185838Y-124833960D02*
G75*
G02*
X123650000Y-122910000I2464162J-616040D01*
G01*
X117300000Y-121005000D02*
G75*
G02*
X119840000Y-118465000I2540000J0D01*
G01*
%TO.C,SW19*%
X109680000Y-118465000D02*
X109680000Y-118846000D01*
X100790000Y-118465000D02*
X109680000Y-118465000D01*
X98250000Y-121005000D02*
X98250000Y-121386000D01*
X98631000Y-124815000D02*
X98250000Y-124815000D01*
X102135838Y-124815000D02*
X100409000Y-124815000D01*
X109680000Y-122910000D02*
X104600000Y-122910000D01*
X109680000Y-121894000D02*
X109680000Y-122910000D01*
X98250000Y-124434000D02*
X98250000Y-124815000D01*
X102135838Y-124833960D02*
G75*
G02*
X104600000Y-122910000I2464162J-616040D01*
G01*
X98250000Y-121005000D02*
G75*
G02*
X100790000Y-118465000I2540000J0D01*
G01*
%TO.C,SW18*%
X90630000Y-118465000D02*
X90630000Y-118846000D01*
X81740000Y-118465000D02*
X90630000Y-118465000D01*
X79200000Y-121005000D02*
X79200000Y-121386000D01*
X79581000Y-124815000D02*
X79200000Y-124815000D01*
X83085838Y-124815000D02*
X81359000Y-124815000D01*
X90630000Y-122910000D02*
X85550000Y-122910000D01*
X90630000Y-121894000D02*
X90630000Y-122910000D01*
X79200000Y-124434000D02*
X79200000Y-124815000D01*
X83085838Y-124833960D02*
G75*
G02*
X85550000Y-122910000I2464162J-616040D01*
G01*
X79200000Y-121005000D02*
G75*
G02*
X81740000Y-118465000I2540000J0D01*
G01*
%TO.C,SW17*%
X71580000Y-118465000D02*
X71580000Y-118846000D01*
X62690000Y-118465000D02*
X71580000Y-118465000D01*
X60150000Y-121005000D02*
X60150000Y-121386000D01*
X60531000Y-124815000D02*
X60150000Y-124815000D01*
X64035838Y-124815000D02*
X62309000Y-124815000D01*
X71580000Y-122910000D02*
X66500000Y-122910000D01*
X71580000Y-121894000D02*
X71580000Y-122910000D01*
X60150000Y-124434000D02*
X60150000Y-124815000D01*
X64035838Y-124833960D02*
G75*
G02*
X66500000Y-122910000I2464162J-616040D01*
G01*
X60150000Y-121005000D02*
G75*
G02*
X62690000Y-118465000I2540000J0D01*
G01*
%TO.C,SW23*%
X81105000Y-118465000D02*
X81105000Y-118846000D01*
X72215000Y-118465000D02*
X81105000Y-118465000D01*
X69675000Y-121005000D02*
X69675000Y-121386000D01*
X70056000Y-124815000D02*
X69675000Y-124815000D01*
X73560838Y-124815000D02*
X71834000Y-124815000D01*
X81105000Y-122910000D02*
X76025000Y-122910000D01*
X81105000Y-121894000D02*
X81105000Y-122910000D01*
X69675000Y-124434000D02*
X69675000Y-124815000D01*
X73560838Y-124833960D02*
G75*
G02*
X76025000Y-122910000I2464162J-616040D01*
G01*
X69675000Y-121005000D02*
G75*
G02*
X72215000Y-118465000I2540000J0D01*
G01*
%TO.C,SW22*%
X118570000Y-122910000D02*
X118570000Y-122529000D01*
X127460000Y-122910000D02*
X118570000Y-122910000D01*
X130000000Y-120370000D02*
X130000000Y-119989000D01*
X129619000Y-116560000D02*
X130000000Y-116560000D01*
X126114162Y-116560000D02*
X127841000Y-116560000D01*
X118570000Y-118465000D02*
X123650000Y-118465000D01*
X118570000Y-119481000D02*
X118570000Y-118465000D01*
X130000000Y-116941000D02*
X130000000Y-116560000D01*
X126114162Y-116541040D02*
G75*
G02*
X123650000Y-118465000I-2464162J616040D01*
G01*
X130000000Y-120370000D02*
G75*
G02*
X127460000Y-122910000I-2540000J0D01*
G01*
%TO.C,SW16*%
X130000000Y-107416000D02*
X130000000Y-107035000D01*
X118570000Y-109956000D02*
X118570000Y-108940000D01*
X118570000Y-108940000D02*
X123650000Y-108940000D01*
X126114162Y-107035000D02*
X127841000Y-107035000D01*
X129619000Y-107035000D02*
X130000000Y-107035000D01*
X130000000Y-110845000D02*
X130000000Y-110464000D01*
X127460000Y-113385000D02*
X118570000Y-113385000D01*
X118570000Y-113385000D02*
X118570000Y-113004000D01*
X130000000Y-110845000D02*
G75*
G02*
X127460000Y-113385000I-2540000J0D01*
G01*
X126114162Y-107016040D02*
G75*
G02*
X123650000Y-108940000I-2464162J616040D01*
G01*
%TO.C,SW15*%
X109680000Y-99415000D02*
X109680000Y-99796000D01*
X100790000Y-99415000D02*
X109680000Y-99415000D01*
X98250000Y-101955000D02*
X98250000Y-102336000D01*
X98631000Y-105765000D02*
X98250000Y-105765000D01*
X102135838Y-105765000D02*
X100409000Y-105765000D01*
X109680000Y-103860000D02*
X104600000Y-103860000D01*
X109680000Y-102844000D02*
X109680000Y-103860000D01*
X98250000Y-105384000D02*
X98250000Y-105765000D01*
X102135838Y-105783960D02*
G75*
G02*
X104600000Y-103860000I2464162J-616040D01*
G01*
X98250000Y-101955000D02*
G75*
G02*
X100790000Y-99415000I2540000J0D01*
G01*
%TO.C,SW14*%
X90630000Y-99415000D02*
X90630000Y-99796000D01*
X81740000Y-99415000D02*
X90630000Y-99415000D01*
X79200000Y-101955000D02*
X79200000Y-102336000D01*
X79581000Y-105765000D02*
X79200000Y-105765000D01*
X83085838Y-105765000D02*
X81359000Y-105765000D01*
X90630000Y-103860000D02*
X85550000Y-103860000D01*
X90630000Y-102844000D02*
X90630000Y-103860000D01*
X79200000Y-105384000D02*
X79200000Y-105765000D01*
X83085838Y-105783960D02*
G75*
G02*
X85550000Y-103860000I2464162J-616040D01*
G01*
X79200000Y-101955000D02*
G75*
G02*
X81740000Y-99415000I2540000J0D01*
G01*
%TO.C,SW13*%
X71580000Y-99415000D02*
X71580000Y-99796000D01*
X62690000Y-99415000D02*
X71580000Y-99415000D01*
X60150000Y-101955000D02*
X60150000Y-102336000D01*
X60531000Y-105765000D02*
X60150000Y-105765000D01*
X64035838Y-105765000D02*
X62309000Y-105765000D01*
X71580000Y-103860000D02*
X66500000Y-103860000D01*
X71580000Y-102844000D02*
X71580000Y-103860000D01*
X60150000Y-105384000D02*
X60150000Y-105765000D01*
X64035838Y-105783960D02*
G75*
G02*
X66500000Y-103860000I2464162J-616040D01*
G01*
X60150000Y-101955000D02*
G75*
G02*
X62690000Y-99415000I2540000J0D01*
G01*
%TO.C,SW21*%
X118570000Y-84810000D02*
X118570000Y-84429000D01*
X127460000Y-84810000D02*
X118570000Y-84810000D01*
X130000000Y-82270000D02*
X130000000Y-81889000D01*
X129619000Y-78460000D02*
X130000000Y-78460000D01*
X126114162Y-78460000D02*
X127841000Y-78460000D01*
X118570000Y-80365000D02*
X123650000Y-80365000D01*
X118570000Y-81381000D02*
X118570000Y-80365000D01*
X130000000Y-78841000D02*
X130000000Y-78460000D01*
X126114162Y-78441040D02*
G75*
G02*
X123650000Y-80365000I-2464162J616040D01*
G01*
X130000000Y-82270000D02*
G75*
G02*
X127460000Y-84810000I-2540000J0D01*
G01*
%TO.C,SW12*%
X128730000Y-80365000D02*
X128730000Y-80746000D01*
X119840000Y-80365000D02*
X128730000Y-80365000D01*
X117300000Y-82905000D02*
X117300000Y-83286000D01*
X117681000Y-86715000D02*
X117300000Y-86715000D01*
X121185838Y-86715000D02*
X119459000Y-86715000D01*
X128730000Y-84810000D02*
X123650000Y-84810000D01*
X128730000Y-83794000D02*
X128730000Y-84810000D01*
X117300000Y-86334000D02*
X117300000Y-86715000D01*
X121185838Y-86733960D02*
G75*
G02*
X123650000Y-84810000I2464162J-616040D01*
G01*
X117300000Y-82905000D02*
G75*
G02*
X119840000Y-80365000I2540000J0D01*
G01*
%TO.C,SW11*%
X109680000Y-80365000D02*
X109680000Y-80746000D01*
X100790000Y-80365000D02*
X109680000Y-80365000D01*
X98250000Y-82905000D02*
X98250000Y-83286000D01*
X98631000Y-86715000D02*
X98250000Y-86715000D01*
X102135838Y-86715000D02*
X100409000Y-86715000D01*
X109680000Y-84810000D02*
X104600000Y-84810000D01*
X109680000Y-83794000D02*
X109680000Y-84810000D01*
X98250000Y-86334000D02*
X98250000Y-86715000D01*
X102135838Y-86733960D02*
G75*
G02*
X104600000Y-84810000I2464162J-616040D01*
G01*
X98250000Y-82905000D02*
G75*
G02*
X100790000Y-80365000I2540000J0D01*
G01*
%TO.C,SW10*%
X90630000Y-80365000D02*
X90630000Y-80746000D01*
X81740000Y-80365000D02*
X90630000Y-80365000D01*
X79200000Y-82905000D02*
X79200000Y-83286000D01*
X79581000Y-86715000D02*
X79200000Y-86715000D01*
X83085838Y-86715000D02*
X81359000Y-86715000D01*
X90630000Y-84810000D02*
X85550000Y-84810000D01*
X90630000Y-83794000D02*
X90630000Y-84810000D01*
X79200000Y-86334000D02*
X79200000Y-86715000D01*
X83085838Y-86733960D02*
G75*
G02*
X85550000Y-84810000I2464162J-616040D01*
G01*
X79200000Y-82905000D02*
G75*
G02*
X81740000Y-80365000I2540000J0D01*
G01*
%TO.C,SW9*%
X71580000Y-80365000D02*
X71580000Y-80746000D01*
X62690000Y-80365000D02*
X71580000Y-80365000D01*
X60150000Y-82905000D02*
X60150000Y-83286000D01*
X60531000Y-86715000D02*
X60150000Y-86715000D01*
X64035838Y-86715000D02*
X62309000Y-86715000D01*
X71580000Y-84810000D02*
X66500000Y-84810000D01*
X71580000Y-83794000D02*
X71580000Y-84810000D01*
X60150000Y-86334000D02*
X60150000Y-86715000D01*
X64035838Y-86733960D02*
G75*
G02*
X66500000Y-84810000I2464162J-616040D01*
G01*
X60150000Y-82905000D02*
G75*
G02*
X62690000Y-80365000I2540000J0D01*
G01*
%TO.C,SW8*%
X118570000Y-75285000D02*
X118570000Y-74904000D01*
X127460000Y-75285000D02*
X118570000Y-75285000D01*
X130000000Y-72745000D02*
X130000000Y-72364000D01*
X129619000Y-68935000D02*
X130000000Y-68935000D01*
X126114162Y-68935000D02*
X127841000Y-68935000D01*
X118570000Y-70840000D02*
X123650000Y-70840000D01*
X118570000Y-71856000D02*
X118570000Y-70840000D01*
X130000000Y-69316000D02*
X130000000Y-68935000D01*
X126114162Y-68916040D02*
G75*
G02*
X123650000Y-70840000I-2464162J616040D01*
G01*
X130000000Y-72745000D02*
G75*
G02*
X127460000Y-75285000I-2540000J0D01*
G01*
%TO.C,SW7*%
X109680000Y-61315000D02*
X109680000Y-61696000D01*
X100790000Y-61315000D02*
X109680000Y-61315000D01*
X98250000Y-63855000D02*
X98250000Y-64236000D01*
X98631000Y-67665000D02*
X98250000Y-67665000D01*
X102135838Y-67665000D02*
X100409000Y-67665000D01*
X109680000Y-65760000D02*
X104600000Y-65760000D01*
X109680000Y-64744000D02*
X109680000Y-65760000D01*
X98250000Y-67284000D02*
X98250000Y-67665000D01*
X102135838Y-67683960D02*
G75*
G02*
X104600000Y-65760000I2464162J-616040D01*
G01*
X98250000Y-63855000D02*
G75*
G02*
X100790000Y-61315000I2540000J0D01*
G01*
%TO.C,SW6*%
X90630000Y-61315000D02*
X90630000Y-61696000D01*
X81740000Y-61315000D02*
X90630000Y-61315000D01*
X79200000Y-63855000D02*
X79200000Y-64236000D01*
X79581000Y-67665000D02*
X79200000Y-67665000D01*
X83085838Y-67665000D02*
X81359000Y-67665000D01*
X90630000Y-65760000D02*
X85550000Y-65760000D01*
X90630000Y-64744000D02*
X90630000Y-65760000D01*
X79200000Y-67284000D02*
X79200000Y-67665000D01*
X83085838Y-67683960D02*
G75*
G02*
X85550000Y-65760000I2464162J-616040D01*
G01*
X79200000Y-63855000D02*
G75*
G02*
X81740000Y-61315000I2540000J0D01*
G01*
%TO.C,SW5*%
X71580000Y-61315000D02*
X71580000Y-61696000D01*
X62690000Y-61315000D02*
X71580000Y-61315000D01*
X60150000Y-63855000D02*
X60150000Y-64236000D01*
X60531000Y-67665000D02*
X60150000Y-67665000D01*
X64035838Y-67665000D02*
X62309000Y-67665000D01*
X71580000Y-65760000D02*
X66500000Y-65760000D01*
X71580000Y-64744000D02*
X71580000Y-65760000D01*
X60150000Y-67284000D02*
X60150000Y-67665000D01*
X64035838Y-67683960D02*
G75*
G02*
X66500000Y-65760000I2464162J-616040D01*
G01*
X60150000Y-63855000D02*
G75*
G02*
X62690000Y-61315000I2540000J0D01*
G01*
%TO.C,SW4*%
X128730000Y-42265000D02*
X128730000Y-42646000D01*
X119840000Y-42265000D02*
X128730000Y-42265000D01*
X117300000Y-44805000D02*
X117300000Y-45186000D01*
X117681000Y-48615000D02*
X117300000Y-48615000D01*
X121185838Y-48615000D02*
X119459000Y-48615000D01*
X128730000Y-46710000D02*
X123650000Y-46710000D01*
X128730000Y-45694000D02*
X128730000Y-46710000D01*
X117300000Y-48234000D02*
X117300000Y-48615000D01*
X121185838Y-48633960D02*
G75*
G02*
X123650000Y-46710000I2464162J-616040D01*
G01*
X117300000Y-44805000D02*
G75*
G02*
X119840000Y-42265000I2540000J0D01*
G01*
%TO.C,SW3*%
X109680000Y-42265000D02*
X109680000Y-42646000D01*
X100790000Y-42265000D02*
X109680000Y-42265000D01*
X98250000Y-44805000D02*
X98250000Y-45186000D01*
X98631000Y-48615000D02*
X98250000Y-48615000D01*
X102135838Y-48615000D02*
X100409000Y-48615000D01*
X109680000Y-46710000D02*
X104600000Y-46710000D01*
X109680000Y-45694000D02*
X109680000Y-46710000D01*
X98250000Y-48234000D02*
X98250000Y-48615000D01*
X102135838Y-48633960D02*
G75*
G02*
X104600000Y-46710000I2464162J-616040D01*
G01*
X98250000Y-44805000D02*
G75*
G02*
X100790000Y-42265000I2540000J0D01*
G01*
%TO.C,SW2*%
X90630000Y-42265000D02*
X90630000Y-42646000D01*
X81740000Y-42265000D02*
X90630000Y-42265000D01*
X79200000Y-44805000D02*
X79200000Y-45186000D01*
X79581000Y-48615000D02*
X79200000Y-48615000D01*
X83085838Y-48615000D02*
X81359000Y-48615000D01*
X90630000Y-46710000D02*
X85550000Y-46710000D01*
X90630000Y-45694000D02*
X90630000Y-46710000D01*
X79200000Y-48234000D02*
X79200000Y-48615000D01*
X83085838Y-48633960D02*
G75*
G02*
X85550000Y-46710000I2464162J-616040D01*
G01*
X79200000Y-44805000D02*
G75*
G02*
X81740000Y-42265000I2540000J0D01*
G01*
%TO.C,SW1*%
X71580000Y-42265000D02*
X71580000Y-42646000D01*
X62690000Y-42265000D02*
X71580000Y-42265000D01*
X60150000Y-44805000D02*
X60150000Y-45186000D01*
X60531000Y-48615000D02*
X60150000Y-48615000D01*
X64035838Y-48615000D02*
X62309000Y-48615000D01*
X71580000Y-46710000D02*
X66500000Y-46710000D01*
X71580000Y-45694000D02*
X71580000Y-46710000D01*
X60150000Y-48234000D02*
X60150000Y-48615000D01*
X64035838Y-48633960D02*
G75*
G02*
X66500000Y-46710000I2464162J-616040D01*
G01*
X60150000Y-44805000D02*
G75*
G02*
X62690000Y-42265000I2540000J0D01*
G01*
%TO.C,SW20*%
X122832142Y-120028571D02*
X122725000Y-120064285D01*
X122546428Y-120064285D01*
X122475000Y-120028571D01*
X122439285Y-119992857D01*
X122403571Y-119921428D01*
X122403571Y-119850000D01*
X122439285Y-119778571D01*
X122475000Y-119742857D01*
X122546428Y-119707142D01*
X122689285Y-119671428D01*
X122760714Y-119635714D01*
X122796428Y-119600000D01*
X122832142Y-119528571D01*
X122832142Y-119457142D01*
X122796428Y-119385714D01*
X122760714Y-119350000D01*
X122689285Y-119314285D01*
X122510714Y-119314285D01*
X122403571Y-119350000D01*
X122153571Y-119314285D02*
X121975000Y-120064285D01*
X121832142Y-119528571D01*
X121689285Y-120064285D01*
X121510714Y-119314285D01*
X121260714Y-119385714D02*
X121225000Y-119350000D01*
X121153571Y-119314285D01*
X120975000Y-119314285D01*
X120903571Y-119350000D01*
X120867857Y-119385714D01*
X120832142Y-119457142D01*
X120832142Y-119528571D01*
X120867857Y-119635714D01*
X121296428Y-120064285D01*
X120832142Y-120064285D01*
X120367857Y-119314285D02*
X120296428Y-119314285D01*
X120225000Y-119350000D01*
X120189285Y-119385714D01*
X120153571Y-119457142D01*
X120117857Y-119600000D01*
X120117857Y-119778571D01*
X120153571Y-119921428D01*
X120189285Y-119992857D01*
X120225000Y-120028571D01*
X120296428Y-120064285D01*
X120367857Y-120064285D01*
X120439285Y-120028571D01*
X120475000Y-119992857D01*
X120510714Y-119921428D01*
X120546428Y-119778571D01*
X120546428Y-119600000D01*
X120510714Y-119457142D01*
X120475000Y-119385714D01*
X120439285Y-119350000D01*
X120367857Y-119314285D01*
%TO.C,SW19*%
X103782142Y-120028571D02*
X103675000Y-120064285D01*
X103496428Y-120064285D01*
X103425000Y-120028571D01*
X103389285Y-119992857D01*
X103353571Y-119921428D01*
X103353571Y-119850000D01*
X103389285Y-119778571D01*
X103425000Y-119742857D01*
X103496428Y-119707142D01*
X103639285Y-119671428D01*
X103710714Y-119635714D01*
X103746428Y-119600000D01*
X103782142Y-119528571D01*
X103782142Y-119457142D01*
X103746428Y-119385714D01*
X103710714Y-119350000D01*
X103639285Y-119314285D01*
X103460714Y-119314285D01*
X103353571Y-119350000D01*
X103103571Y-119314285D02*
X102925000Y-120064285D01*
X102782142Y-119528571D01*
X102639285Y-120064285D01*
X102460714Y-119314285D01*
X101782142Y-120064285D02*
X102210714Y-120064285D01*
X101996428Y-120064285D02*
X101996428Y-119314285D01*
X102067857Y-119421428D01*
X102139285Y-119492857D01*
X102210714Y-119528571D01*
X101425000Y-120064285D02*
X101282142Y-120064285D01*
X101210714Y-120028571D01*
X101175000Y-119992857D01*
X101103571Y-119885714D01*
X101067857Y-119742857D01*
X101067857Y-119457142D01*
X101103571Y-119385714D01*
X101139285Y-119350000D01*
X101210714Y-119314285D01*
X101353571Y-119314285D01*
X101425000Y-119350000D01*
X101460714Y-119385714D01*
X101496428Y-119457142D01*
X101496428Y-119635714D01*
X101460714Y-119707142D01*
X101425000Y-119742857D01*
X101353571Y-119778571D01*
X101210714Y-119778571D01*
X101139285Y-119742857D01*
X101103571Y-119707142D01*
X101067857Y-119635714D01*
%TO.C,SW18*%
X84732142Y-120028571D02*
X84625000Y-120064285D01*
X84446428Y-120064285D01*
X84375000Y-120028571D01*
X84339285Y-119992857D01*
X84303571Y-119921428D01*
X84303571Y-119850000D01*
X84339285Y-119778571D01*
X84375000Y-119742857D01*
X84446428Y-119707142D01*
X84589285Y-119671428D01*
X84660714Y-119635714D01*
X84696428Y-119600000D01*
X84732142Y-119528571D01*
X84732142Y-119457142D01*
X84696428Y-119385714D01*
X84660714Y-119350000D01*
X84589285Y-119314285D01*
X84410714Y-119314285D01*
X84303571Y-119350000D01*
X84053571Y-119314285D02*
X83875000Y-120064285D01*
X83732142Y-119528571D01*
X83589285Y-120064285D01*
X83410714Y-119314285D01*
X82732142Y-120064285D02*
X83160714Y-120064285D01*
X82946428Y-120064285D02*
X82946428Y-119314285D01*
X83017857Y-119421428D01*
X83089285Y-119492857D01*
X83160714Y-119528571D01*
X82303571Y-119635714D02*
X82375000Y-119600000D01*
X82410714Y-119564285D01*
X82446428Y-119492857D01*
X82446428Y-119457142D01*
X82410714Y-119385714D01*
X82375000Y-119350000D01*
X82303571Y-119314285D01*
X82160714Y-119314285D01*
X82089285Y-119350000D01*
X82053571Y-119385714D01*
X82017857Y-119457142D01*
X82017857Y-119492857D01*
X82053571Y-119564285D01*
X82089285Y-119600000D01*
X82160714Y-119635714D01*
X82303571Y-119635714D01*
X82375000Y-119671428D01*
X82410714Y-119707142D01*
X82446428Y-119778571D01*
X82446428Y-119921428D01*
X82410714Y-119992857D01*
X82375000Y-120028571D01*
X82303571Y-120064285D01*
X82160714Y-120064285D01*
X82089285Y-120028571D01*
X82053571Y-119992857D01*
X82017857Y-119921428D01*
X82017857Y-119778571D01*
X82053571Y-119707142D01*
X82089285Y-119671428D01*
X82160714Y-119635714D01*
%TO.C,SW17*%
X65682142Y-120028571D02*
X65575000Y-120064285D01*
X65396428Y-120064285D01*
X65325000Y-120028571D01*
X65289285Y-119992857D01*
X65253571Y-119921428D01*
X65253571Y-119850000D01*
X65289285Y-119778571D01*
X65325000Y-119742857D01*
X65396428Y-119707142D01*
X65539285Y-119671428D01*
X65610714Y-119635714D01*
X65646428Y-119600000D01*
X65682142Y-119528571D01*
X65682142Y-119457142D01*
X65646428Y-119385714D01*
X65610714Y-119350000D01*
X65539285Y-119314285D01*
X65360714Y-119314285D01*
X65253571Y-119350000D01*
X65003571Y-119314285D02*
X64825000Y-120064285D01*
X64682142Y-119528571D01*
X64539285Y-120064285D01*
X64360714Y-119314285D01*
X63682142Y-120064285D02*
X64110714Y-120064285D01*
X63896428Y-120064285D02*
X63896428Y-119314285D01*
X63967857Y-119421428D01*
X64039285Y-119492857D01*
X64110714Y-119528571D01*
X63432142Y-119314285D02*
X62932142Y-119314285D01*
X63253571Y-120064285D01*
%TO.C,SW23*%
X75207142Y-120028571D02*
X75100000Y-120064285D01*
X74921428Y-120064285D01*
X74850000Y-120028571D01*
X74814285Y-119992857D01*
X74778571Y-119921428D01*
X74778571Y-119850000D01*
X74814285Y-119778571D01*
X74850000Y-119742857D01*
X74921428Y-119707142D01*
X75064285Y-119671428D01*
X75135714Y-119635714D01*
X75171428Y-119600000D01*
X75207142Y-119528571D01*
X75207142Y-119457142D01*
X75171428Y-119385714D01*
X75135714Y-119350000D01*
X75064285Y-119314285D01*
X74885714Y-119314285D01*
X74778571Y-119350000D01*
X74528571Y-119314285D02*
X74350000Y-120064285D01*
X74207142Y-119528571D01*
X74064285Y-120064285D01*
X73885714Y-119314285D01*
X73635714Y-119385714D02*
X73600000Y-119350000D01*
X73528571Y-119314285D01*
X73350000Y-119314285D01*
X73278571Y-119350000D01*
X73242857Y-119385714D01*
X73207142Y-119457142D01*
X73207142Y-119528571D01*
X73242857Y-119635714D01*
X73671428Y-120064285D01*
X73207142Y-120064285D01*
X72957142Y-119314285D02*
X72492857Y-119314285D01*
X72742857Y-119600000D01*
X72635714Y-119600000D01*
X72564285Y-119635714D01*
X72528571Y-119671428D01*
X72492857Y-119742857D01*
X72492857Y-119921428D01*
X72528571Y-119992857D01*
X72564285Y-120028571D01*
X72635714Y-120064285D01*
X72850000Y-120064285D01*
X72921428Y-120028571D01*
X72957142Y-119992857D01*
%TO.C,SW22*%
X127182142Y-121953571D02*
X127075000Y-121989285D01*
X126896428Y-121989285D01*
X126825000Y-121953571D01*
X126789285Y-121917857D01*
X126753571Y-121846428D01*
X126753571Y-121775000D01*
X126789285Y-121703571D01*
X126825000Y-121667857D01*
X126896428Y-121632142D01*
X127039285Y-121596428D01*
X127110714Y-121560714D01*
X127146428Y-121525000D01*
X127182142Y-121453571D01*
X127182142Y-121382142D01*
X127146428Y-121310714D01*
X127110714Y-121275000D01*
X127039285Y-121239285D01*
X126860714Y-121239285D01*
X126753571Y-121275000D01*
X126503571Y-121239285D02*
X126325000Y-121989285D01*
X126182142Y-121453571D01*
X126039285Y-121989285D01*
X125860714Y-121239285D01*
X125610714Y-121310714D02*
X125575000Y-121275000D01*
X125503571Y-121239285D01*
X125325000Y-121239285D01*
X125253571Y-121275000D01*
X125217857Y-121310714D01*
X125182142Y-121382142D01*
X125182142Y-121453571D01*
X125217857Y-121560714D01*
X125646428Y-121989285D01*
X125182142Y-121989285D01*
X124896428Y-121310714D02*
X124860714Y-121275000D01*
X124789285Y-121239285D01*
X124610714Y-121239285D01*
X124539285Y-121275000D01*
X124503571Y-121310714D01*
X124467857Y-121382142D01*
X124467857Y-121453571D01*
X124503571Y-121560714D01*
X124932142Y-121989285D01*
X124467857Y-121989285D01*
%TO.C,SW16*%
X127182142Y-112428571D02*
X127075000Y-112464285D01*
X126896428Y-112464285D01*
X126825000Y-112428571D01*
X126789285Y-112392857D01*
X126753571Y-112321428D01*
X126753571Y-112250000D01*
X126789285Y-112178571D01*
X126825000Y-112142857D01*
X126896428Y-112107142D01*
X127039285Y-112071428D01*
X127110714Y-112035714D01*
X127146428Y-112000000D01*
X127182142Y-111928571D01*
X127182142Y-111857142D01*
X127146428Y-111785714D01*
X127110714Y-111750000D01*
X127039285Y-111714285D01*
X126860714Y-111714285D01*
X126753571Y-111750000D01*
X126503571Y-111714285D02*
X126325000Y-112464285D01*
X126182142Y-111928571D01*
X126039285Y-112464285D01*
X125860714Y-111714285D01*
X125182142Y-112464285D02*
X125610714Y-112464285D01*
X125396428Y-112464285D02*
X125396428Y-111714285D01*
X125467857Y-111821428D01*
X125539285Y-111892857D01*
X125610714Y-111928571D01*
X124539285Y-111714285D02*
X124682142Y-111714285D01*
X124753571Y-111750000D01*
X124789285Y-111785714D01*
X124860714Y-111892857D01*
X124896428Y-112035714D01*
X124896428Y-112321428D01*
X124860714Y-112392857D01*
X124825000Y-112428571D01*
X124753571Y-112464285D01*
X124610714Y-112464285D01*
X124539285Y-112428571D01*
X124503571Y-112392857D01*
X124467857Y-112321428D01*
X124467857Y-112142857D01*
X124503571Y-112071428D01*
X124539285Y-112035714D01*
X124610714Y-112000000D01*
X124753571Y-112000000D01*
X124825000Y-112035714D01*
X124860714Y-112071428D01*
X124896428Y-112142857D01*
%TO.C,SW15*%
X103782142Y-100978571D02*
X103675000Y-101014285D01*
X103496428Y-101014285D01*
X103425000Y-100978571D01*
X103389285Y-100942857D01*
X103353571Y-100871428D01*
X103353571Y-100800000D01*
X103389285Y-100728571D01*
X103425000Y-100692857D01*
X103496428Y-100657142D01*
X103639285Y-100621428D01*
X103710714Y-100585714D01*
X103746428Y-100550000D01*
X103782142Y-100478571D01*
X103782142Y-100407142D01*
X103746428Y-100335714D01*
X103710714Y-100300000D01*
X103639285Y-100264285D01*
X103460714Y-100264285D01*
X103353571Y-100300000D01*
X103103571Y-100264285D02*
X102925000Y-101014285D01*
X102782142Y-100478571D01*
X102639285Y-101014285D01*
X102460714Y-100264285D01*
X101782142Y-101014285D02*
X102210714Y-101014285D01*
X101996428Y-101014285D02*
X101996428Y-100264285D01*
X102067857Y-100371428D01*
X102139285Y-100442857D01*
X102210714Y-100478571D01*
X101103571Y-100264285D02*
X101460714Y-100264285D01*
X101496428Y-100621428D01*
X101460714Y-100585714D01*
X101389285Y-100550000D01*
X101210714Y-100550000D01*
X101139285Y-100585714D01*
X101103571Y-100621428D01*
X101067857Y-100692857D01*
X101067857Y-100871428D01*
X101103571Y-100942857D01*
X101139285Y-100978571D01*
X101210714Y-101014285D01*
X101389285Y-101014285D01*
X101460714Y-100978571D01*
X101496428Y-100942857D01*
%TO.C,SW14*%
X84732142Y-100978571D02*
X84625000Y-101014285D01*
X84446428Y-101014285D01*
X84375000Y-100978571D01*
X84339285Y-100942857D01*
X84303571Y-100871428D01*
X84303571Y-100800000D01*
X84339285Y-100728571D01*
X84375000Y-100692857D01*
X84446428Y-100657142D01*
X84589285Y-100621428D01*
X84660714Y-100585714D01*
X84696428Y-100550000D01*
X84732142Y-100478571D01*
X84732142Y-100407142D01*
X84696428Y-100335714D01*
X84660714Y-100300000D01*
X84589285Y-100264285D01*
X84410714Y-100264285D01*
X84303571Y-100300000D01*
X84053571Y-100264285D02*
X83875000Y-101014285D01*
X83732142Y-100478571D01*
X83589285Y-101014285D01*
X83410714Y-100264285D01*
X82732142Y-101014285D02*
X83160714Y-101014285D01*
X82946428Y-101014285D02*
X82946428Y-100264285D01*
X83017857Y-100371428D01*
X83089285Y-100442857D01*
X83160714Y-100478571D01*
X82089285Y-100514285D02*
X82089285Y-101014285D01*
X82267857Y-100228571D02*
X82446428Y-100764285D01*
X81982142Y-100764285D01*
%TO.C,SW13*%
X65682142Y-100978571D02*
X65575000Y-101014285D01*
X65396428Y-101014285D01*
X65325000Y-100978571D01*
X65289285Y-100942857D01*
X65253571Y-100871428D01*
X65253571Y-100800000D01*
X65289285Y-100728571D01*
X65325000Y-100692857D01*
X65396428Y-100657142D01*
X65539285Y-100621428D01*
X65610714Y-100585714D01*
X65646428Y-100550000D01*
X65682142Y-100478571D01*
X65682142Y-100407142D01*
X65646428Y-100335714D01*
X65610714Y-100300000D01*
X65539285Y-100264285D01*
X65360714Y-100264285D01*
X65253571Y-100300000D01*
X65003571Y-100264285D02*
X64825000Y-101014285D01*
X64682142Y-100478571D01*
X64539285Y-101014285D01*
X64360714Y-100264285D01*
X63682142Y-101014285D02*
X64110714Y-101014285D01*
X63896428Y-101014285D02*
X63896428Y-100264285D01*
X63967857Y-100371428D01*
X64039285Y-100442857D01*
X64110714Y-100478571D01*
X63432142Y-100264285D02*
X62967857Y-100264285D01*
X63217857Y-100550000D01*
X63110714Y-100550000D01*
X63039285Y-100585714D01*
X63003571Y-100621428D01*
X62967857Y-100692857D01*
X62967857Y-100871428D01*
X63003571Y-100942857D01*
X63039285Y-100978571D01*
X63110714Y-101014285D01*
X63325000Y-101014285D01*
X63396428Y-100978571D01*
X63432142Y-100942857D01*
%TO.C,SW21*%
X127182142Y-83853571D02*
X127075000Y-83889285D01*
X126896428Y-83889285D01*
X126825000Y-83853571D01*
X126789285Y-83817857D01*
X126753571Y-83746428D01*
X126753571Y-83675000D01*
X126789285Y-83603571D01*
X126825000Y-83567857D01*
X126896428Y-83532142D01*
X127039285Y-83496428D01*
X127110714Y-83460714D01*
X127146428Y-83425000D01*
X127182142Y-83353571D01*
X127182142Y-83282142D01*
X127146428Y-83210714D01*
X127110714Y-83175000D01*
X127039285Y-83139285D01*
X126860714Y-83139285D01*
X126753571Y-83175000D01*
X126503571Y-83139285D02*
X126325000Y-83889285D01*
X126182142Y-83353571D01*
X126039285Y-83889285D01*
X125860714Y-83139285D01*
X125610714Y-83210714D02*
X125575000Y-83175000D01*
X125503571Y-83139285D01*
X125325000Y-83139285D01*
X125253571Y-83175000D01*
X125217857Y-83210714D01*
X125182142Y-83282142D01*
X125182142Y-83353571D01*
X125217857Y-83460714D01*
X125646428Y-83889285D01*
X125182142Y-83889285D01*
X124467857Y-83889285D02*
X124896428Y-83889285D01*
X124682142Y-83889285D02*
X124682142Y-83139285D01*
X124753571Y-83246428D01*
X124825000Y-83317857D01*
X124896428Y-83353571D01*
%TO.C,SW12*%
X122832142Y-81928571D02*
X122725000Y-81964285D01*
X122546428Y-81964285D01*
X122475000Y-81928571D01*
X122439285Y-81892857D01*
X122403571Y-81821428D01*
X122403571Y-81750000D01*
X122439285Y-81678571D01*
X122475000Y-81642857D01*
X122546428Y-81607142D01*
X122689285Y-81571428D01*
X122760714Y-81535714D01*
X122796428Y-81500000D01*
X122832142Y-81428571D01*
X122832142Y-81357142D01*
X122796428Y-81285714D01*
X122760714Y-81250000D01*
X122689285Y-81214285D01*
X122510714Y-81214285D01*
X122403571Y-81250000D01*
X122153571Y-81214285D02*
X121975000Y-81964285D01*
X121832142Y-81428571D01*
X121689285Y-81964285D01*
X121510714Y-81214285D01*
X120832142Y-81964285D02*
X121260714Y-81964285D01*
X121046428Y-81964285D02*
X121046428Y-81214285D01*
X121117857Y-81321428D01*
X121189285Y-81392857D01*
X121260714Y-81428571D01*
X120546428Y-81285714D02*
X120510714Y-81250000D01*
X120439285Y-81214285D01*
X120260714Y-81214285D01*
X120189285Y-81250000D01*
X120153571Y-81285714D01*
X120117857Y-81357142D01*
X120117857Y-81428571D01*
X120153571Y-81535714D01*
X120582142Y-81964285D01*
X120117857Y-81964285D01*
%TO.C,SW11*%
X103782142Y-81928571D02*
X103675000Y-81964285D01*
X103496428Y-81964285D01*
X103425000Y-81928571D01*
X103389285Y-81892857D01*
X103353571Y-81821428D01*
X103353571Y-81750000D01*
X103389285Y-81678571D01*
X103425000Y-81642857D01*
X103496428Y-81607142D01*
X103639285Y-81571428D01*
X103710714Y-81535714D01*
X103746428Y-81500000D01*
X103782142Y-81428571D01*
X103782142Y-81357142D01*
X103746428Y-81285714D01*
X103710714Y-81250000D01*
X103639285Y-81214285D01*
X103460714Y-81214285D01*
X103353571Y-81250000D01*
X103103571Y-81214285D02*
X102925000Y-81964285D01*
X102782142Y-81428571D01*
X102639285Y-81964285D01*
X102460714Y-81214285D01*
X101782142Y-81964285D02*
X102210714Y-81964285D01*
X101996428Y-81964285D02*
X101996428Y-81214285D01*
X102067857Y-81321428D01*
X102139285Y-81392857D01*
X102210714Y-81428571D01*
X101067857Y-81964285D02*
X101496428Y-81964285D01*
X101282142Y-81964285D02*
X101282142Y-81214285D01*
X101353571Y-81321428D01*
X101425000Y-81392857D01*
X101496428Y-81428571D01*
%TO.C,SW10*%
X84732142Y-81928571D02*
X84625000Y-81964285D01*
X84446428Y-81964285D01*
X84375000Y-81928571D01*
X84339285Y-81892857D01*
X84303571Y-81821428D01*
X84303571Y-81750000D01*
X84339285Y-81678571D01*
X84375000Y-81642857D01*
X84446428Y-81607142D01*
X84589285Y-81571428D01*
X84660714Y-81535714D01*
X84696428Y-81500000D01*
X84732142Y-81428571D01*
X84732142Y-81357142D01*
X84696428Y-81285714D01*
X84660714Y-81250000D01*
X84589285Y-81214285D01*
X84410714Y-81214285D01*
X84303571Y-81250000D01*
X84053571Y-81214285D02*
X83875000Y-81964285D01*
X83732142Y-81428571D01*
X83589285Y-81964285D01*
X83410714Y-81214285D01*
X82732142Y-81964285D02*
X83160714Y-81964285D01*
X82946428Y-81964285D02*
X82946428Y-81214285D01*
X83017857Y-81321428D01*
X83089285Y-81392857D01*
X83160714Y-81428571D01*
X82267857Y-81214285D02*
X82196428Y-81214285D01*
X82125000Y-81250000D01*
X82089285Y-81285714D01*
X82053571Y-81357142D01*
X82017857Y-81500000D01*
X82017857Y-81678571D01*
X82053571Y-81821428D01*
X82089285Y-81892857D01*
X82125000Y-81928571D01*
X82196428Y-81964285D01*
X82267857Y-81964285D01*
X82339285Y-81928571D01*
X82375000Y-81892857D01*
X82410714Y-81821428D01*
X82446428Y-81678571D01*
X82446428Y-81500000D01*
X82410714Y-81357142D01*
X82375000Y-81285714D01*
X82339285Y-81250000D01*
X82267857Y-81214285D01*
%TO.C,SW9*%
X65325000Y-81928571D02*
X65217857Y-81964285D01*
X65039285Y-81964285D01*
X64967857Y-81928571D01*
X64932142Y-81892857D01*
X64896428Y-81821428D01*
X64896428Y-81750000D01*
X64932142Y-81678571D01*
X64967857Y-81642857D01*
X65039285Y-81607142D01*
X65182142Y-81571428D01*
X65253571Y-81535714D01*
X65289285Y-81500000D01*
X65325000Y-81428571D01*
X65325000Y-81357142D01*
X65289285Y-81285714D01*
X65253571Y-81250000D01*
X65182142Y-81214285D01*
X65003571Y-81214285D01*
X64896428Y-81250000D01*
X64646428Y-81214285D02*
X64467857Y-81964285D01*
X64325000Y-81428571D01*
X64182142Y-81964285D01*
X64003571Y-81214285D01*
X63682142Y-81964285D02*
X63539285Y-81964285D01*
X63467857Y-81928571D01*
X63432142Y-81892857D01*
X63360714Y-81785714D01*
X63325000Y-81642857D01*
X63325000Y-81357142D01*
X63360714Y-81285714D01*
X63396428Y-81250000D01*
X63467857Y-81214285D01*
X63610714Y-81214285D01*
X63682142Y-81250000D01*
X63717857Y-81285714D01*
X63753571Y-81357142D01*
X63753571Y-81535714D01*
X63717857Y-81607142D01*
X63682142Y-81642857D01*
X63610714Y-81678571D01*
X63467857Y-81678571D01*
X63396428Y-81642857D01*
X63360714Y-81607142D01*
X63325000Y-81535714D01*
%TO.C,SW8*%
X126825000Y-74328571D02*
X126717857Y-74364285D01*
X126539285Y-74364285D01*
X126467857Y-74328571D01*
X126432142Y-74292857D01*
X126396428Y-74221428D01*
X126396428Y-74150000D01*
X126432142Y-74078571D01*
X126467857Y-74042857D01*
X126539285Y-74007142D01*
X126682142Y-73971428D01*
X126753571Y-73935714D01*
X126789285Y-73900000D01*
X126825000Y-73828571D01*
X126825000Y-73757142D01*
X126789285Y-73685714D01*
X126753571Y-73650000D01*
X126682142Y-73614285D01*
X126503571Y-73614285D01*
X126396428Y-73650000D01*
X126146428Y-73614285D02*
X125967857Y-74364285D01*
X125825000Y-73828571D01*
X125682142Y-74364285D01*
X125503571Y-73614285D01*
X125110714Y-73935714D02*
X125182142Y-73900000D01*
X125217857Y-73864285D01*
X125253571Y-73792857D01*
X125253571Y-73757142D01*
X125217857Y-73685714D01*
X125182142Y-73650000D01*
X125110714Y-73614285D01*
X124967857Y-73614285D01*
X124896428Y-73650000D01*
X124860714Y-73685714D01*
X124825000Y-73757142D01*
X124825000Y-73792857D01*
X124860714Y-73864285D01*
X124896428Y-73900000D01*
X124967857Y-73935714D01*
X125110714Y-73935714D01*
X125182142Y-73971428D01*
X125217857Y-74007142D01*
X125253571Y-74078571D01*
X125253571Y-74221428D01*
X125217857Y-74292857D01*
X125182142Y-74328571D01*
X125110714Y-74364285D01*
X124967857Y-74364285D01*
X124896428Y-74328571D01*
X124860714Y-74292857D01*
X124825000Y-74221428D01*
X124825000Y-74078571D01*
X124860714Y-74007142D01*
X124896428Y-73971428D01*
X124967857Y-73935714D01*
%TO.C,SW7*%
X103425000Y-62878571D02*
X103317857Y-62914285D01*
X103139285Y-62914285D01*
X103067857Y-62878571D01*
X103032142Y-62842857D01*
X102996428Y-62771428D01*
X102996428Y-62700000D01*
X103032142Y-62628571D01*
X103067857Y-62592857D01*
X103139285Y-62557142D01*
X103282142Y-62521428D01*
X103353571Y-62485714D01*
X103389285Y-62450000D01*
X103425000Y-62378571D01*
X103425000Y-62307142D01*
X103389285Y-62235714D01*
X103353571Y-62200000D01*
X103282142Y-62164285D01*
X103103571Y-62164285D01*
X102996428Y-62200000D01*
X102746428Y-62164285D02*
X102567857Y-62914285D01*
X102425000Y-62378571D01*
X102282142Y-62914285D01*
X102103571Y-62164285D01*
X101889285Y-62164285D02*
X101389285Y-62164285D01*
X101710714Y-62914285D01*
%TO.C,SW6*%
X84375000Y-62878571D02*
X84267857Y-62914285D01*
X84089285Y-62914285D01*
X84017857Y-62878571D01*
X83982142Y-62842857D01*
X83946428Y-62771428D01*
X83946428Y-62700000D01*
X83982142Y-62628571D01*
X84017857Y-62592857D01*
X84089285Y-62557142D01*
X84232142Y-62521428D01*
X84303571Y-62485714D01*
X84339285Y-62450000D01*
X84375000Y-62378571D01*
X84375000Y-62307142D01*
X84339285Y-62235714D01*
X84303571Y-62200000D01*
X84232142Y-62164285D01*
X84053571Y-62164285D01*
X83946428Y-62200000D01*
X83696428Y-62164285D02*
X83517857Y-62914285D01*
X83375000Y-62378571D01*
X83232142Y-62914285D01*
X83053571Y-62164285D01*
X82446428Y-62164285D02*
X82589285Y-62164285D01*
X82660714Y-62200000D01*
X82696428Y-62235714D01*
X82767857Y-62342857D01*
X82803571Y-62485714D01*
X82803571Y-62771428D01*
X82767857Y-62842857D01*
X82732142Y-62878571D01*
X82660714Y-62914285D01*
X82517857Y-62914285D01*
X82446428Y-62878571D01*
X82410714Y-62842857D01*
X82375000Y-62771428D01*
X82375000Y-62592857D01*
X82410714Y-62521428D01*
X82446428Y-62485714D01*
X82517857Y-62450000D01*
X82660714Y-62450000D01*
X82732142Y-62485714D01*
X82767857Y-62521428D01*
X82803571Y-62592857D01*
%TO.C,SW5*%
X65325000Y-62878571D02*
X65217857Y-62914285D01*
X65039285Y-62914285D01*
X64967857Y-62878571D01*
X64932142Y-62842857D01*
X64896428Y-62771428D01*
X64896428Y-62700000D01*
X64932142Y-62628571D01*
X64967857Y-62592857D01*
X65039285Y-62557142D01*
X65182142Y-62521428D01*
X65253571Y-62485714D01*
X65289285Y-62450000D01*
X65325000Y-62378571D01*
X65325000Y-62307142D01*
X65289285Y-62235714D01*
X65253571Y-62200000D01*
X65182142Y-62164285D01*
X65003571Y-62164285D01*
X64896428Y-62200000D01*
X64646428Y-62164285D02*
X64467857Y-62914285D01*
X64325000Y-62378571D01*
X64182142Y-62914285D01*
X64003571Y-62164285D01*
X63360714Y-62164285D02*
X63717857Y-62164285D01*
X63753571Y-62521428D01*
X63717857Y-62485714D01*
X63646428Y-62450000D01*
X63467857Y-62450000D01*
X63396428Y-62485714D01*
X63360714Y-62521428D01*
X63325000Y-62592857D01*
X63325000Y-62771428D01*
X63360714Y-62842857D01*
X63396428Y-62878571D01*
X63467857Y-62914285D01*
X63646428Y-62914285D01*
X63717857Y-62878571D01*
X63753571Y-62842857D01*
%TO.C,SW4*%
X122475000Y-43828571D02*
X122367857Y-43864285D01*
X122189285Y-43864285D01*
X122117857Y-43828571D01*
X122082142Y-43792857D01*
X122046428Y-43721428D01*
X122046428Y-43650000D01*
X122082142Y-43578571D01*
X122117857Y-43542857D01*
X122189285Y-43507142D01*
X122332142Y-43471428D01*
X122403571Y-43435714D01*
X122439285Y-43400000D01*
X122475000Y-43328571D01*
X122475000Y-43257142D01*
X122439285Y-43185714D01*
X122403571Y-43150000D01*
X122332142Y-43114285D01*
X122153571Y-43114285D01*
X122046428Y-43150000D01*
X121796428Y-43114285D02*
X121617857Y-43864285D01*
X121475000Y-43328571D01*
X121332142Y-43864285D01*
X121153571Y-43114285D01*
X120546428Y-43364285D02*
X120546428Y-43864285D01*
X120725000Y-43078571D02*
X120903571Y-43614285D01*
X120439285Y-43614285D01*
%TO.C,SW3*%
X103425000Y-43828571D02*
X103317857Y-43864285D01*
X103139285Y-43864285D01*
X103067857Y-43828571D01*
X103032142Y-43792857D01*
X102996428Y-43721428D01*
X102996428Y-43650000D01*
X103032142Y-43578571D01*
X103067857Y-43542857D01*
X103139285Y-43507142D01*
X103282142Y-43471428D01*
X103353571Y-43435714D01*
X103389285Y-43400000D01*
X103425000Y-43328571D01*
X103425000Y-43257142D01*
X103389285Y-43185714D01*
X103353571Y-43150000D01*
X103282142Y-43114285D01*
X103103571Y-43114285D01*
X102996428Y-43150000D01*
X102746428Y-43114285D02*
X102567857Y-43864285D01*
X102425000Y-43328571D01*
X102282142Y-43864285D01*
X102103571Y-43114285D01*
X101889285Y-43114285D02*
X101425000Y-43114285D01*
X101675000Y-43400000D01*
X101567857Y-43400000D01*
X101496428Y-43435714D01*
X101460714Y-43471428D01*
X101425000Y-43542857D01*
X101425000Y-43721428D01*
X101460714Y-43792857D01*
X101496428Y-43828571D01*
X101567857Y-43864285D01*
X101782142Y-43864285D01*
X101853571Y-43828571D01*
X101889285Y-43792857D01*
%TO.C,SW2*%
X84375000Y-43828571D02*
X84267857Y-43864285D01*
X84089285Y-43864285D01*
X84017857Y-43828571D01*
X83982142Y-43792857D01*
X83946428Y-43721428D01*
X83946428Y-43650000D01*
X83982142Y-43578571D01*
X84017857Y-43542857D01*
X84089285Y-43507142D01*
X84232142Y-43471428D01*
X84303571Y-43435714D01*
X84339285Y-43400000D01*
X84375000Y-43328571D01*
X84375000Y-43257142D01*
X84339285Y-43185714D01*
X84303571Y-43150000D01*
X84232142Y-43114285D01*
X84053571Y-43114285D01*
X83946428Y-43150000D01*
X83696428Y-43114285D02*
X83517857Y-43864285D01*
X83375000Y-43328571D01*
X83232142Y-43864285D01*
X83053571Y-43114285D01*
X82803571Y-43185714D02*
X82767857Y-43150000D01*
X82696428Y-43114285D01*
X82517857Y-43114285D01*
X82446428Y-43150000D01*
X82410714Y-43185714D01*
X82375000Y-43257142D01*
X82375000Y-43328571D01*
X82410714Y-43435714D01*
X82839285Y-43864285D01*
X82375000Y-43864285D01*
%TO.C,SW1*%
X65325000Y-43828571D02*
X65217857Y-43864285D01*
X65039285Y-43864285D01*
X64967857Y-43828571D01*
X64932142Y-43792857D01*
X64896428Y-43721428D01*
X64896428Y-43650000D01*
X64932142Y-43578571D01*
X64967857Y-43542857D01*
X65039285Y-43507142D01*
X65182142Y-43471428D01*
X65253571Y-43435714D01*
X65289285Y-43400000D01*
X65325000Y-43328571D01*
X65325000Y-43257142D01*
X65289285Y-43185714D01*
X65253571Y-43150000D01*
X65182142Y-43114285D01*
X65003571Y-43114285D01*
X64896428Y-43150000D01*
X64646428Y-43114285D02*
X64467857Y-43864285D01*
X64325000Y-43328571D01*
X64182142Y-43864285D01*
X64003571Y-43114285D01*
X63325000Y-43864285D02*
X63753571Y-43864285D01*
X63539285Y-43864285D02*
X63539285Y-43114285D01*
X63610714Y-43221428D01*
X63682142Y-43292857D01*
X63753571Y-43328571D01*
%TD*%
M02*
