%TF.GenerationSoftware,KiCad,Pcbnew,(5.1.9)-1*%
%TF.CreationDate,2021-08-24T14:53:50+02:00*%
%TF.ProjectId,unWired refernce,756e5769-7265-4642-9072-656665726e63,rev?*%
%TF.SameCoordinates,Original*%
%TF.FileFunction,Soldermask,Bot*%
%TF.FilePolarity,Negative*%
%FSLAX46Y46*%
G04 Gerber Fmt 4.6, Leading zero omitted, Abs format (unit mm)*
G04 Created by KiCad (PCBNEW (5.1.9)-1) date 2021-08-24 14:53:50*
%MOMM*%
%LPD*%
G01*
G04 APERTURE LIST*
%ADD10O,1.700000X1.700000*%
%ADD11R,1.700000X1.700000*%
%ADD12C,2.000000*%
%ADD13R,2.000000X2.000000*%
%ADD14O,1.200000X1.750000*%
%ADD15R,2.550000X2.500000*%
%ADD16C,1.701800*%
%ADD17C,3.987800*%
%ADD18C,3.000000*%
%ADD19C,3.048000*%
%ADD20C,3.700000*%
%ADD21O,1.000000X2.100000*%
%ADD22C,0.650000*%
%ADD23O,1.000000X1.600000*%
G04 APERTURE END LIST*
D10*
%TO.C,J3*%
X50540000Y-65250000D03*
X48000000Y-65250000D03*
X45460000Y-65250000D03*
D11*
X42920000Y-65250000D03*
%TD*%
D12*
%TO.C,ENC2*%
X129250000Y-49790000D03*
X129250000Y-48710000D03*
X118050000Y-48710000D03*
D13*
X121150000Y-56750000D03*
D12*
X123650000Y-56750000D03*
X126150000Y-56750000D03*
X121150000Y-42250000D03*
X126150000Y-42250000D03*
X118050000Y-49790000D03*
%TD*%
%TO.C,ENC1*%
X72100000Y-49790000D03*
X72100000Y-48710000D03*
X60900000Y-48710000D03*
D13*
X64000000Y-56750000D03*
D12*
X66500000Y-56750000D03*
X69000000Y-56750000D03*
X64000000Y-42250000D03*
X69000000Y-42250000D03*
X60900000Y-49790000D03*
%TD*%
D14*
%TO.C,J2*%
X54630000Y-86110000D03*
G36*
G01*
X52030000Y-86735001D02*
X52030000Y-85484999D01*
G75*
G02*
X52279999Y-85235000I249999J0D01*
G01*
X52980001Y-85235000D01*
G75*
G02*
X53230000Y-85484999I0J-249999D01*
G01*
X53230000Y-86735001D01*
G75*
G02*
X52980001Y-86985000I-249999J0D01*
G01*
X52279999Y-86985000D01*
G75*
G02*
X52030000Y-86735001I0J249999D01*
G01*
G37*
%TD*%
D15*
%TO.C,SW20*%
X116090000Y-122910000D03*
D16*
X118570000Y-125450000D03*
X128730000Y-125450000D03*
D17*
X123650000Y-125450000D03*
D18*
X119840000Y-122910000D03*
X126190000Y-120370000D03*
D15*
X129940000Y-120370000D03*
%TD*%
%TO.C,SW19*%
X97040000Y-122910000D03*
D16*
X99520000Y-125450000D03*
X109680000Y-125450000D03*
D17*
X104600000Y-125450000D03*
D18*
X100790000Y-122910000D03*
X107140000Y-120370000D03*
D15*
X110890000Y-120370000D03*
%TD*%
%TO.C,SW18*%
X77990000Y-122910000D03*
D16*
X80470000Y-125450000D03*
X90630000Y-125450000D03*
D17*
X85550000Y-125450000D03*
D18*
X81740000Y-122910000D03*
X88090000Y-120370000D03*
D15*
X91840000Y-120370000D03*
%TD*%
%TO.C,SW17*%
X58940000Y-122910000D03*
D16*
X61420000Y-125450000D03*
X71580000Y-125450000D03*
D17*
X66500000Y-125450000D03*
D18*
X62690000Y-122910000D03*
X69040000Y-120370000D03*
D15*
X72790000Y-120370000D03*
%TD*%
%TO.C,SW23*%
X68465000Y-122910000D03*
D16*
X70945000Y-125450000D03*
X81105000Y-125450000D03*
D17*
X76025000Y-125450000D03*
D18*
X72215000Y-122910000D03*
X78565000Y-120370000D03*
D15*
X82315000Y-120370000D03*
%TD*%
%TO.C,SW22*%
X131210000Y-118465000D03*
D16*
X128730000Y-115925000D03*
X118570000Y-115925000D03*
D17*
X123650000Y-115925000D03*
D18*
X127460000Y-118465000D03*
X121110000Y-121005000D03*
D15*
X117360000Y-121005000D03*
%TD*%
%TO.C,SW16*%
X117360000Y-111480000D03*
D18*
X121110000Y-111480000D03*
X127460000Y-108940000D03*
D17*
X123650000Y-106400000D03*
D16*
X118570000Y-106400000D03*
X128730000Y-106400000D03*
D15*
X131210000Y-108940000D03*
%TD*%
%TO.C,SW15*%
X97040000Y-103860000D03*
D16*
X99520000Y-106400000D03*
X109680000Y-106400000D03*
D17*
X104600000Y-106400000D03*
D18*
X100790000Y-103860000D03*
X107140000Y-101320000D03*
D15*
X110890000Y-101320000D03*
%TD*%
%TO.C,SW14*%
X77990000Y-103860000D03*
D16*
X80470000Y-106400000D03*
X90630000Y-106400000D03*
D17*
X85550000Y-106400000D03*
D18*
X81740000Y-103860000D03*
X88090000Y-101320000D03*
D15*
X91840000Y-101320000D03*
%TD*%
%TO.C,SW13*%
X58940000Y-103860000D03*
D16*
X61420000Y-106400000D03*
X71580000Y-106400000D03*
D17*
X66500000Y-106400000D03*
D18*
X62690000Y-103860000D03*
X69040000Y-101320000D03*
D15*
X72790000Y-101320000D03*
%TD*%
%TO.C,SW21*%
X131210000Y-80365000D03*
D16*
X128730000Y-77825000D03*
X118570000Y-77825000D03*
D17*
X123650000Y-77825000D03*
D18*
X127460000Y-80365000D03*
X121110000Y-82905000D03*
D15*
X117360000Y-82905000D03*
%TD*%
%TO.C,SW12*%
X116090000Y-84810000D03*
D16*
X118570000Y-87350000D03*
X128730000Y-87350000D03*
D17*
X123650000Y-87350000D03*
D18*
X119840000Y-84810000D03*
X126190000Y-82270000D03*
D15*
X129940000Y-82270000D03*
%TD*%
%TO.C,SW11*%
X97040000Y-84810000D03*
D16*
X99520000Y-87350000D03*
X109680000Y-87350000D03*
D17*
X104600000Y-87350000D03*
D18*
X100790000Y-84810000D03*
X107140000Y-82270000D03*
D15*
X110890000Y-82270000D03*
%TD*%
%TO.C,SW10*%
X77990000Y-84810000D03*
D16*
X80470000Y-87350000D03*
X90630000Y-87350000D03*
D17*
X85550000Y-87350000D03*
D18*
X81740000Y-84810000D03*
X88090000Y-82270000D03*
D15*
X91840000Y-82270000D03*
%TD*%
%TO.C,SW9*%
X58940000Y-84810000D03*
D16*
X61420000Y-87350000D03*
X71580000Y-87350000D03*
D17*
X66500000Y-87350000D03*
D18*
X62690000Y-84810000D03*
X69040000Y-82270000D03*
D15*
X72790000Y-82270000D03*
%TD*%
%TO.C,SW8*%
X131210000Y-70840000D03*
D16*
X128730000Y-68300000D03*
X118570000Y-68300000D03*
D17*
X123650000Y-68300000D03*
D18*
X127460000Y-70840000D03*
X121110000Y-73380000D03*
D15*
X117360000Y-73380000D03*
%TD*%
%TO.C,SW7*%
X97040000Y-65760000D03*
D16*
X99520000Y-68300000D03*
X109680000Y-68300000D03*
D17*
X104600000Y-68300000D03*
D18*
X100790000Y-65760000D03*
X107140000Y-63220000D03*
D15*
X110890000Y-63220000D03*
%TD*%
%TO.C,SW6*%
X77990000Y-65760000D03*
D16*
X80470000Y-68300000D03*
X90630000Y-68300000D03*
D17*
X85550000Y-68300000D03*
D18*
X81740000Y-65760000D03*
X88090000Y-63220000D03*
D15*
X91840000Y-63220000D03*
%TD*%
%TO.C,SW5*%
X58940000Y-65760000D03*
D16*
X61420000Y-68300000D03*
X71580000Y-68300000D03*
D17*
X66500000Y-68300000D03*
D18*
X62690000Y-65760000D03*
X69040000Y-63220000D03*
D15*
X72790000Y-63220000D03*
%TD*%
%TO.C,SW4*%
X116090000Y-46710000D03*
D16*
X118570000Y-49250000D03*
X128730000Y-49250000D03*
D17*
X123650000Y-49250000D03*
D18*
X119840000Y-46710000D03*
X126190000Y-44170000D03*
D15*
X129940000Y-44170000D03*
%TD*%
%TO.C,SW3*%
X97040000Y-46710000D03*
D16*
X99520000Y-49250000D03*
X109680000Y-49250000D03*
D17*
X104600000Y-49250000D03*
D18*
X100790000Y-46710000D03*
X107140000Y-44170000D03*
D15*
X110890000Y-44170000D03*
%TD*%
%TO.C,SW2*%
X77990000Y-46710000D03*
D16*
X80470000Y-49250000D03*
X90630000Y-49250000D03*
D17*
X85550000Y-49250000D03*
D18*
X81740000Y-46710000D03*
X88090000Y-44170000D03*
D15*
X91840000Y-44170000D03*
%TD*%
%TO.C,SW1*%
X58940000Y-46710000D03*
D16*
X61420000Y-49250000D03*
X71580000Y-49250000D03*
D17*
X66500000Y-49250000D03*
D18*
X62690000Y-46710000D03*
X69040000Y-44170000D03*
D15*
X72790000Y-44170000D03*
%TD*%
D19*
%TO.C,ST3*%
X87925000Y-132435000D03*
X64125000Y-132435000D03*
D17*
X87925000Y-117195000D03*
X64125000Y-117195000D03*
%TD*%
D19*
%TO.C,ST2*%
X130635000Y-104025000D03*
X130635000Y-127825000D03*
D17*
X115395000Y-104025000D03*
X115395000Y-127825000D03*
%TD*%
D19*
%TO.C,ST1*%
X130635000Y-65925000D03*
X130635000Y-89725000D03*
D17*
X115395000Y-65925000D03*
X115395000Y-89725000D03*
%TD*%
D20*
%TO.C,H4*%
X133450000Y-131030000D03*
%TD*%
%TO.C,H3*%
X41350000Y-131030000D03*
%TD*%
%TO.C,H2*%
X133450000Y-43670000D03*
%TD*%
%TO.C,H1*%
X41350000Y-43670000D03*
%TD*%
D21*
%TO.C,J1*%
X46910000Y-46300000D03*
X55550000Y-46300000D03*
D22*
X54120000Y-45770000D03*
D23*
X55550000Y-42120000D03*
D22*
X48340000Y-45770000D03*
D23*
X46910000Y-42120000D03*
%TD*%
M02*
