%TF.GenerationSoftware,KiCad,Pcbnew,(5.1.9)-1*%
%TF.CreationDate,2021-08-24T14:53:50+02:00*%
%TF.ProjectId,unWired refernce,756e5769-7265-4642-9072-656665726e63,rev?*%
%TF.SameCoordinates,Original*%
%TF.FileFunction,Paste,Top*%
%TF.FilePolarity,Positive*%
%FSLAX46Y46*%
G04 Gerber Fmt 4.6, Leading zero omitted, Abs format (unit mm)*
G04 Created by KiCad (PCBNEW (5.1.9)-1) date 2021-08-24 14:53:50*
%MOMM*%
%LPD*%
G01*
G04 APERTURE LIST*
%ADD10R,0.500000X0.800000*%
%ADD11R,1.000000X0.500000*%
%ADD12R,0.700000X1.524000*%
%ADD13R,1.524000X0.700000*%
%ADD14R,3.402000X2.513000*%
%ADD15R,0.700000X1.525000*%
%ADD16R,0.900000X0.800000*%
%ADD17R,1.500000X1.500000*%
%ADD18R,0.900000X1.200000*%
%ADD19R,1.200000X0.900000*%
%ADD20R,0.800000X0.900000*%
%ADD21R,0.600000X0.450000*%
%ADD22R,0.600000X1.450000*%
%ADD23R,0.300000X1.450000*%
%ADD24R,1.060000X0.650000*%
G04 APERTURE END LIST*
D10*
%TO.C,S2*%
X40850000Y-47190000D03*
X38750000Y-47190000D03*
X38750000Y-54090000D03*
X40850000Y-54090000D03*
D11*
X41650000Y-52890000D03*
X41650000Y-51390000D03*
X41650000Y-48390000D03*
%TD*%
D10*
%TO.C,S1*%
X40850000Y-78490000D03*
X38750000Y-78490000D03*
X38750000Y-85390000D03*
X40850000Y-85390000D03*
D11*
X41650000Y-84190000D03*
X41650000Y-82690000D03*
X41650000Y-79690000D03*
%TD*%
%TO.C,R9*%
G36*
G01*
X39955000Y-57845000D02*
X39955000Y-57295000D01*
G75*
G02*
X40155000Y-57095000I200000J0D01*
G01*
X40555000Y-57095000D01*
G75*
G02*
X40755000Y-57295000I0J-200000D01*
G01*
X40755000Y-57845000D01*
G75*
G02*
X40555000Y-58045000I-200000J0D01*
G01*
X40155000Y-58045000D01*
G75*
G02*
X39955000Y-57845000I0J200000D01*
G01*
G37*
G36*
G01*
X38305000Y-57845000D02*
X38305000Y-57295000D01*
G75*
G02*
X38505000Y-57095000I200000J0D01*
G01*
X38905000Y-57095000D01*
G75*
G02*
X39105000Y-57295000I0J-200000D01*
G01*
X39105000Y-57845000D01*
G75*
G02*
X38905000Y-58045000I-200000J0D01*
G01*
X38505000Y-58045000D01*
G75*
G02*
X38305000Y-57845000I0J200000D01*
G01*
G37*
%TD*%
%TO.C,LED3*%
G36*
G01*
X39900000Y-56096250D02*
X39900000Y-55583750D01*
G75*
G02*
X40118750Y-55365000I218750J0D01*
G01*
X40556250Y-55365000D01*
G75*
G02*
X40775000Y-55583750I0J-218750D01*
G01*
X40775000Y-56096250D01*
G75*
G02*
X40556250Y-56315000I-218750J0D01*
G01*
X40118750Y-56315000D01*
G75*
G02*
X39900000Y-56096250I0J218750D01*
G01*
G37*
G36*
G01*
X38325000Y-56096250D02*
X38325000Y-55583750D01*
G75*
G02*
X38543750Y-55365000I218750J0D01*
G01*
X38981250Y-55365000D01*
G75*
G02*
X39200000Y-55583750I0J-218750D01*
G01*
X39200000Y-56096250D01*
G75*
G02*
X38981250Y-56315000I-218750J0D01*
G01*
X38543750Y-56315000D01*
G75*
G02*
X38325000Y-56096250I0J218750D01*
G01*
G37*
%TD*%
D12*
%TO.C,U2*%
X40680000Y-61520000D03*
X41780000Y-61520000D03*
X42880000Y-61520000D03*
X43980000Y-61520000D03*
X45080000Y-61520000D03*
X46180000Y-61520000D03*
X47280000Y-61520000D03*
X48380000Y-61520000D03*
X49480000Y-61520000D03*
X50580000Y-61520000D03*
X51680000Y-61520000D03*
X52780000Y-61520000D03*
X53880000Y-61520000D03*
D13*
X55380000Y-62770000D03*
X55380000Y-63870000D03*
X55380000Y-64970000D03*
X55380000Y-66070000D03*
X55380000Y-67170000D03*
X55380000Y-68270000D03*
X55380000Y-69370000D03*
X55380000Y-70470000D03*
X55380000Y-71570000D03*
X55380000Y-72670000D03*
X55380000Y-73770000D03*
D12*
X53880000Y-75020000D03*
X52780000Y-75020000D03*
X51680000Y-75020000D03*
X50580000Y-75020000D03*
X49480000Y-75020000D03*
X48380000Y-75020000D03*
X47280000Y-75020000D03*
X46180000Y-75020000D03*
X45080000Y-75020000D03*
X43980000Y-75020000D03*
X42880000Y-75020000D03*
X41780000Y-75020000D03*
X40680000Y-75020000D03*
%TD*%
D14*
%TO.C,U3*%
X47070000Y-85340000D03*
D15*
X48975000Y-88052000D03*
X47705000Y-88052000D03*
X46435000Y-88052000D03*
X45165000Y-88052000D03*
X45165000Y-82628000D03*
X46435000Y-82628000D03*
X47705000Y-82628000D03*
X48975000Y-82628000D03*
%TD*%
D16*
%TO.C,Q1*%
X54310000Y-80020000D03*
X56310000Y-79070000D03*
X56310000Y-80970000D03*
%TD*%
D17*
%TO.C,SW24*%
X43642000Y-54991000D03*
X46242000Y-54991000D03*
X44942000Y-51091000D03*
X44942000Y-58891000D03*
%TD*%
D18*
%TO.C,D20*%
X112590000Y-117050000D03*
X109290000Y-117050000D03*
%TD*%
D19*
%TO.C,D19*%
X95075000Y-128800000D03*
X95075000Y-132100000D03*
%TD*%
%TO.C,D18*%
X77220000Y-112700000D03*
X77220000Y-109400000D03*
%TD*%
%TO.C,D17*%
X74840000Y-112690000D03*
X74840000Y-109390000D03*
%TD*%
D18*
%TO.C,D16*%
X112590000Y-114750000D03*
X109290000Y-114750000D03*
%TD*%
D19*
%TO.C,D15*%
X95075000Y-109750000D03*
X95075000Y-113050000D03*
%TD*%
%TO.C,D14*%
X95075000Y-99750000D03*
X95075000Y-103050000D03*
%TD*%
%TO.C,D13*%
X76025000Y-99750000D03*
X76025000Y-103050000D03*
%TD*%
D18*
%TO.C,D12*%
X112590000Y-96790000D03*
X109290000Y-96790000D03*
%TD*%
D19*
%TO.C,D11*%
X95075000Y-90700000D03*
X95075000Y-94000000D03*
%TD*%
%TO.C,D10*%
X76025000Y-90700000D03*
X76025000Y-94000000D03*
%TD*%
%TO.C,D9*%
X76025000Y-80700000D03*
X76025000Y-84000000D03*
%TD*%
D18*
%TO.C,D8*%
X112400000Y-77510000D03*
X109100000Y-77510000D03*
%TD*%
D19*
%TO.C,D7*%
X95075000Y-71650000D03*
X95075000Y-74950000D03*
%TD*%
%TO.C,D6*%
X76025000Y-71650000D03*
X76025000Y-74950000D03*
%TD*%
%TO.C,D5*%
X76025000Y-61650000D03*
X76025000Y-64950000D03*
%TD*%
%TO.C,D4*%
X114125000Y-50600000D03*
X114125000Y-53900000D03*
%TD*%
%TO.C,D3*%
X95075000Y-52600000D03*
X95075000Y-55900000D03*
%TD*%
%TO.C,D2*%
X76025000Y-52600000D03*
X76025000Y-55900000D03*
%TD*%
%TO.C,D1*%
X76025000Y-42600000D03*
X76025000Y-45900000D03*
%TD*%
%TO.C,C12*%
G36*
G01*
X125705000Y-59470000D02*
X125705000Y-58970000D01*
G75*
G02*
X125930000Y-58745000I225000J0D01*
G01*
X126380000Y-58745000D01*
G75*
G02*
X126605000Y-58970000I0J-225000D01*
G01*
X126605000Y-59470000D01*
G75*
G02*
X126380000Y-59695000I-225000J0D01*
G01*
X125930000Y-59695000D01*
G75*
G02*
X125705000Y-59470000I0J225000D01*
G01*
G37*
G36*
G01*
X124155000Y-59470000D02*
X124155000Y-58970000D01*
G75*
G02*
X124380000Y-58745000I225000J0D01*
G01*
X124830000Y-58745000D01*
G75*
G02*
X125055000Y-58970000I0J-225000D01*
G01*
X125055000Y-59470000D01*
G75*
G02*
X124830000Y-59695000I-225000J0D01*
G01*
X124380000Y-59695000D01*
G75*
G02*
X124155000Y-59470000I0J225000D01*
G01*
G37*
%TD*%
%TO.C,C11*%
G36*
G01*
X122245000Y-59440000D02*
X122245000Y-58940000D01*
G75*
G02*
X122470000Y-58715000I225000J0D01*
G01*
X122920000Y-58715000D01*
G75*
G02*
X123145000Y-58940000I0J-225000D01*
G01*
X123145000Y-59440000D01*
G75*
G02*
X122920000Y-59665000I-225000J0D01*
G01*
X122470000Y-59665000D01*
G75*
G02*
X122245000Y-59440000I0J225000D01*
G01*
G37*
G36*
G01*
X120695000Y-59440000D02*
X120695000Y-58940000D01*
G75*
G02*
X120920000Y-58715000I225000J0D01*
G01*
X121370000Y-58715000D01*
G75*
G02*
X121595000Y-58940000I0J-225000D01*
G01*
X121595000Y-59440000D01*
G75*
G02*
X121370000Y-59665000I-225000J0D01*
G01*
X120920000Y-59665000D01*
G75*
G02*
X120695000Y-59440000I0J225000D01*
G01*
G37*
%TD*%
%TO.C,C10*%
G36*
G01*
X68455000Y-59660000D02*
X68455000Y-59160000D01*
G75*
G02*
X68680000Y-58935000I225000J0D01*
G01*
X69130000Y-58935000D01*
G75*
G02*
X69355000Y-59160000I0J-225000D01*
G01*
X69355000Y-59660000D01*
G75*
G02*
X69130000Y-59885000I-225000J0D01*
G01*
X68680000Y-59885000D01*
G75*
G02*
X68455000Y-59660000I0J225000D01*
G01*
G37*
G36*
G01*
X66905000Y-59660000D02*
X66905000Y-59160000D01*
G75*
G02*
X67130000Y-58935000I225000J0D01*
G01*
X67580000Y-58935000D01*
G75*
G02*
X67805000Y-59160000I0J-225000D01*
G01*
X67805000Y-59660000D01*
G75*
G02*
X67580000Y-59885000I-225000J0D01*
G01*
X67130000Y-59885000D01*
G75*
G02*
X66905000Y-59660000I0J225000D01*
G01*
G37*
%TD*%
%TO.C,C9*%
G36*
G01*
X65295000Y-59650000D02*
X65295000Y-59150000D01*
G75*
G02*
X65520000Y-58925000I225000J0D01*
G01*
X65970000Y-58925000D01*
G75*
G02*
X66195000Y-59150000I0J-225000D01*
G01*
X66195000Y-59650000D01*
G75*
G02*
X65970000Y-59875000I-225000J0D01*
G01*
X65520000Y-59875000D01*
G75*
G02*
X65295000Y-59650000I0J225000D01*
G01*
G37*
G36*
G01*
X63745000Y-59650000D02*
X63745000Y-59150000D01*
G75*
G02*
X63970000Y-58925000I225000J0D01*
G01*
X64420000Y-58925000D01*
G75*
G02*
X64645000Y-59150000I0J-225000D01*
G01*
X64645000Y-59650000D01*
G75*
G02*
X64420000Y-59875000I-225000J0D01*
G01*
X63970000Y-59875000D01*
G75*
G02*
X63745000Y-59650000I0J225000D01*
G01*
G37*
%TD*%
%TO.C,R8*%
G36*
G01*
X53005000Y-77155000D02*
X52455000Y-77155000D01*
G75*
G02*
X52255000Y-76955000I0J200000D01*
G01*
X52255000Y-76555000D01*
G75*
G02*
X52455000Y-76355000I200000J0D01*
G01*
X53005000Y-76355000D01*
G75*
G02*
X53205000Y-76555000I0J-200000D01*
G01*
X53205000Y-76955000D01*
G75*
G02*
X53005000Y-77155000I-200000J0D01*
G01*
G37*
G36*
G01*
X53005000Y-78805000D02*
X52455000Y-78805000D01*
G75*
G02*
X52255000Y-78605000I0J200000D01*
G01*
X52255000Y-78205000D01*
G75*
G02*
X52455000Y-78005000I200000J0D01*
G01*
X53005000Y-78005000D01*
G75*
G02*
X53205000Y-78205000I0J-200000D01*
G01*
X53205000Y-78605000D01*
G75*
G02*
X53005000Y-78805000I-200000J0D01*
G01*
G37*
%TD*%
%TO.C,R7*%
G36*
G01*
X50905000Y-78005000D02*
X51455000Y-78005000D01*
G75*
G02*
X51655000Y-78205000I0J-200000D01*
G01*
X51655000Y-78605000D01*
G75*
G02*
X51455000Y-78805000I-200000J0D01*
G01*
X50905000Y-78805000D01*
G75*
G02*
X50705000Y-78605000I0J200000D01*
G01*
X50705000Y-78205000D01*
G75*
G02*
X50905000Y-78005000I200000J0D01*
G01*
G37*
G36*
G01*
X50905000Y-76355000D02*
X51455000Y-76355000D01*
G75*
G02*
X51655000Y-76555000I0J-200000D01*
G01*
X51655000Y-76955000D01*
G75*
G02*
X51455000Y-77155000I-200000J0D01*
G01*
X50905000Y-77155000D01*
G75*
G02*
X50705000Y-76955000I0J200000D01*
G01*
X50705000Y-76555000D01*
G75*
G02*
X50905000Y-76355000I200000J0D01*
G01*
G37*
%TD*%
D20*
%TO.C,U4*%
X57660000Y-77440000D03*
X56710000Y-75440000D03*
X58610000Y-75440000D03*
%TD*%
%TO.C,C8*%
G36*
G01*
X58087000Y-72547000D02*
X58087000Y-72047000D01*
G75*
G02*
X58312000Y-71822000I225000J0D01*
G01*
X58762000Y-71822000D01*
G75*
G02*
X58987000Y-72047000I0J-225000D01*
G01*
X58987000Y-72547000D01*
G75*
G02*
X58762000Y-72772000I-225000J0D01*
G01*
X58312000Y-72772000D01*
G75*
G02*
X58087000Y-72547000I0J225000D01*
G01*
G37*
G36*
G01*
X56537000Y-72547000D02*
X56537000Y-72047000D01*
G75*
G02*
X56762000Y-71822000I225000J0D01*
G01*
X57212000Y-71822000D01*
G75*
G02*
X57437000Y-72047000I0J-225000D01*
G01*
X57437000Y-72547000D01*
G75*
G02*
X57212000Y-72772000I-225000J0D01*
G01*
X56762000Y-72772000D01*
G75*
G02*
X56537000Y-72547000I0J225000D01*
G01*
G37*
%TD*%
%TO.C,C7*%
G36*
G01*
X58087000Y-74137000D02*
X58087000Y-73637000D01*
G75*
G02*
X58312000Y-73412000I225000J0D01*
G01*
X58762000Y-73412000D01*
G75*
G02*
X58987000Y-73637000I0J-225000D01*
G01*
X58987000Y-74137000D01*
G75*
G02*
X58762000Y-74362000I-225000J0D01*
G01*
X58312000Y-74362000D01*
G75*
G02*
X58087000Y-74137000I0J225000D01*
G01*
G37*
G36*
G01*
X56537000Y-74137000D02*
X56537000Y-73637000D01*
G75*
G02*
X56762000Y-73412000I225000J0D01*
G01*
X57212000Y-73412000D01*
G75*
G02*
X57437000Y-73637000I0J-225000D01*
G01*
X57437000Y-74137000D01*
G75*
G02*
X57212000Y-74362000I-225000J0D01*
G01*
X56762000Y-74362000D01*
G75*
G02*
X56537000Y-74137000I0J225000D01*
G01*
G37*
%TD*%
%TO.C,C6*%
G36*
G01*
X61451000Y-77994000D02*
X61451000Y-77494000D01*
G75*
G02*
X61676000Y-77269000I225000J0D01*
G01*
X62126000Y-77269000D01*
G75*
G02*
X62351000Y-77494000I0J-225000D01*
G01*
X62351000Y-77994000D01*
G75*
G02*
X62126000Y-78219000I-225000J0D01*
G01*
X61676000Y-78219000D01*
G75*
G02*
X61451000Y-77994000I0J225000D01*
G01*
G37*
G36*
G01*
X59901000Y-77994000D02*
X59901000Y-77494000D01*
G75*
G02*
X60126000Y-77269000I225000J0D01*
G01*
X60576000Y-77269000D01*
G75*
G02*
X60801000Y-77494000I0J-225000D01*
G01*
X60801000Y-77994000D01*
G75*
G02*
X60576000Y-78219000I-225000J0D01*
G01*
X60126000Y-78219000D01*
G75*
G02*
X59901000Y-77994000I0J225000D01*
G01*
G37*
%TD*%
%TO.C,C5*%
G36*
G01*
X61445000Y-79520000D02*
X61445000Y-79020000D01*
G75*
G02*
X61670000Y-78795000I225000J0D01*
G01*
X62120000Y-78795000D01*
G75*
G02*
X62345000Y-79020000I0J-225000D01*
G01*
X62345000Y-79520000D01*
G75*
G02*
X62120000Y-79745000I-225000J0D01*
G01*
X61670000Y-79745000D01*
G75*
G02*
X61445000Y-79520000I0J225000D01*
G01*
G37*
G36*
G01*
X59895000Y-79520000D02*
X59895000Y-79020000D01*
G75*
G02*
X60120000Y-78795000I225000J0D01*
G01*
X60570000Y-78795000D01*
G75*
G02*
X60795000Y-79020000I0J-225000D01*
G01*
X60795000Y-79520000D01*
G75*
G02*
X60570000Y-79745000I-225000J0D01*
G01*
X60120000Y-79745000D01*
G75*
G02*
X59895000Y-79520000I0J225000D01*
G01*
G37*
%TD*%
%TO.C,C4*%
G36*
G01*
X61451000Y-76470000D02*
X61451000Y-75970000D01*
G75*
G02*
X61676000Y-75745000I225000J0D01*
G01*
X62126000Y-75745000D01*
G75*
G02*
X62351000Y-75970000I0J-225000D01*
G01*
X62351000Y-76470000D01*
G75*
G02*
X62126000Y-76695000I-225000J0D01*
G01*
X61676000Y-76695000D01*
G75*
G02*
X61451000Y-76470000I0J225000D01*
G01*
G37*
G36*
G01*
X59901000Y-76470000D02*
X59901000Y-75970000D01*
G75*
G02*
X60126000Y-75745000I225000J0D01*
G01*
X60576000Y-75745000D01*
G75*
G02*
X60801000Y-75970000I0J-225000D01*
G01*
X60801000Y-76470000D01*
G75*
G02*
X60576000Y-76695000I-225000J0D01*
G01*
X60126000Y-76695000D01*
G75*
G02*
X59901000Y-76470000I0J225000D01*
G01*
G37*
%TD*%
%TO.C,R6*%
G36*
G01*
X55797000Y-83603000D02*
X55797000Y-83053000D01*
G75*
G02*
X55997000Y-82853000I200000J0D01*
G01*
X56397000Y-82853000D01*
G75*
G02*
X56597000Y-83053000I0J-200000D01*
G01*
X56597000Y-83603000D01*
G75*
G02*
X56397000Y-83803000I-200000J0D01*
G01*
X55997000Y-83803000D01*
G75*
G02*
X55797000Y-83603000I0J200000D01*
G01*
G37*
G36*
G01*
X54147000Y-83603000D02*
X54147000Y-83053000D01*
G75*
G02*
X54347000Y-82853000I200000J0D01*
G01*
X54747000Y-82853000D01*
G75*
G02*
X54947000Y-83053000I0J-200000D01*
G01*
X54947000Y-83603000D01*
G75*
G02*
X54747000Y-83803000I-200000J0D01*
G01*
X54347000Y-83803000D01*
G75*
G02*
X54147000Y-83603000I0J200000D01*
G01*
G37*
%TD*%
D19*
%TO.C,ZD1*%
X58240000Y-82270000D03*
X58240000Y-78970000D03*
%TD*%
%TO.C,C3*%
G36*
G01*
X42974999Y-86330000D02*
X43825001Y-86330000D01*
G75*
G02*
X44075000Y-86579999I0J-249999D01*
G01*
X44075000Y-87480001D01*
G75*
G02*
X43825001Y-87730000I-249999J0D01*
G01*
X42974999Y-87730000D01*
G75*
G02*
X42725000Y-87480001I0J249999D01*
G01*
X42725000Y-86579999D01*
G75*
G02*
X42974999Y-86330000I249999J0D01*
G01*
G37*
G36*
G01*
X42974999Y-83630000D02*
X43825001Y-83630000D01*
G75*
G02*
X44075000Y-83879999I0J-249999D01*
G01*
X44075000Y-84780001D01*
G75*
G02*
X43825001Y-85030000I-249999J0D01*
G01*
X42974999Y-85030000D01*
G75*
G02*
X42725000Y-84780001I0J249999D01*
G01*
X42725000Y-83879999D01*
G75*
G02*
X42974999Y-83630000I249999J0D01*
G01*
G37*
%TD*%
%TO.C,LED1*%
G36*
G01*
X39170000Y-90615750D02*
X39170000Y-91128250D01*
G75*
G02*
X38951250Y-91347000I-218750J0D01*
G01*
X38513750Y-91347000D01*
G75*
G02*
X38295000Y-91128250I0J218750D01*
G01*
X38295000Y-90615750D01*
G75*
G02*
X38513750Y-90397000I218750J0D01*
G01*
X38951250Y-90397000D01*
G75*
G02*
X39170000Y-90615750I0J-218750D01*
G01*
G37*
G36*
G01*
X40745000Y-90615750D02*
X40745000Y-91128250D01*
G75*
G02*
X40526250Y-91347000I-218750J0D01*
G01*
X40088750Y-91347000D01*
G75*
G02*
X39870000Y-91128250I0J218750D01*
G01*
X39870000Y-90615750D01*
G75*
G02*
X40088750Y-90397000I218750J0D01*
G01*
X40526250Y-90397000D01*
G75*
G02*
X40745000Y-90615750I0J-218750D01*
G01*
G37*
%TD*%
%TO.C,LED2*%
G36*
G01*
X39170000Y-88561750D02*
X39170000Y-89074250D01*
G75*
G02*
X38951250Y-89293000I-218750J0D01*
G01*
X38513750Y-89293000D01*
G75*
G02*
X38295000Y-89074250I0J218750D01*
G01*
X38295000Y-88561750D01*
G75*
G02*
X38513750Y-88343000I218750J0D01*
G01*
X38951250Y-88343000D01*
G75*
G02*
X39170000Y-88561750I0J-218750D01*
G01*
G37*
G36*
G01*
X40745000Y-88561750D02*
X40745000Y-89074250D01*
G75*
G02*
X40526250Y-89293000I-218750J0D01*
G01*
X40088750Y-89293000D01*
G75*
G02*
X39870000Y-89074250I0J218750D01*
G01*
X39870000Y-88561750D01*
G75*
G02*
X40088750Y-88343000I218750J0D01*
G01*
X40526250Y-88343000D01*
G75*
G02*
X40745000Y-88561750I0J-218750D01*
G01*
G37*
%TD*%
%TO.C,C2*%
G36*
G01*
X51999000Y-83078000D02*
X51999000Y-83578000D01*
G75*
G02*
X51774000Y-83803000I-225000J0D01*
G01*
X51324000Y-83803000D01*
G75*
G02*
X51099000Y-83578000I0J225000D01*
G01*
X51099000Y-83078000D01*
G75*
G02*
X51324000Y-82853000I225000J0D01*
G01*
X51774000Y-82853000D01*
G75*
G02*
X51999000Y-83078000I0J-225000D01*
G01*
G37*
G36*
G01*
X53549000Y-83078000D02*
X53549000Y-83578000D01*
G75*
G02*
X53324000Y-83803000I-225000J0D01*
G01*
X52874000Y-83803000D01*
G75*
G02*
X52649000Y-83578000I0J225000D01*
G01*
X52649000Y-83078000D01*
G75*
G02*
X52874000Y-82853000I225000J0D01*
G01*
X53324000Y-82853000D01*
G75*
G02*
X53549000Y-83078000I0J-225000D01*
G01*
G37*
%TD*%
%TO.C,C1*%
G36*
G01*
X48564999Y-92070000D02*
X49415001Y-92070000D01*
G75*
G02*
X49665000Y-92319999I0J-249999D01*
G01*
X49665000Y-93220001D01*
G75*
G02*
X49415001Y-93470000I-249999J0D01*
G01*
X48564999Y-93470000D01*
G75*
G02*
X48315000Y-93220001I0J249999D01*
G01*
X48315000Y-92319999D01*
G75*
G02*
X48564999Y-92070000I249999J0D01*
G01*
G37*
G36*
G01*
X48564999Y-89370000D02*
X49415001Y-89370000D01*
G75*
G02*
X49665000Y-89619999I0J-249999D01*
G01*
X49665000Y-90520001D01*
G75*
G02*
X49415001Y-90770000I-249999J0D01*
G01*
X48564999Y-90770000D01*
G75*
G02*
X48315000Y-90520001I0J249999D01*
G01*
X48315000Y-89619999D01*
G75*
G02*
X48564999Y-89370000I249999J0D01*
G01*
G37*
%TD*%
%TO.C,R5*%
G36*
G01*
X47975000Y-80495000D02*
X47975000Y-81045000D01*
G75*
G02*
X47775000Y-81245000I-200000J0D01*
G01*
X47375000Y-81245000D01*
G75*
G02*
X47175000Y-81045000I0J200000D01*
G01*
X47175000Y-80495000D01*
G75*
G02*
X47375000Y-80295000I200000J0D01*
G01*
X47775000Y-80295000D01*
G75*
G02*
X47975000Y-80495000I0J-200000D01*
G01*
G37*
G36*
G01*
X49625000Y-80495000D02*
X49625000Y-81045000D01*
G75*
G02*
X49425000Y-81245000I-200000J0D01*
G01*
X49025000Y-81245000D01*
G75*
G02*
X48825000Y-81045000I0J200000D01*
G01*
X48825000Y-80495000D01*
G75*
G02*
X49025000Y-80295000I200000J0D01*
G01*
X49425000Y-80295000D01*
G75*
G02*
X49625000Y-80495000I0J-200000D01*
G01*
G37*
%TD*%
%TO.C,R4*%
G36*
G01*
X42255000Y-88543000D02*
X42255000Y-89093000D01*
G75*
G02*
X42055000Y-89293000I-200000J0D01*
G01*
X41655000Y-89293000D01*
G75*
G02*
X41455000Y-89093000I0J200000D01*
G01*
X41455000Y-88543000D01*
G75*
G02*
X41655000Y-88343000I200000J0D01*
G01*
X42055000Y-88343000D01*
G75*
G02*
X42255000Y-88543000I0J-200000D01*
G01*
G37*
G36*
G01*
X43905000Y-88543000D02*
X43905000Y-89093000D01*
G75*
G02*
X43705000Y-89293000I-200000J0D01*
G01*
X43305000Y-89293000D01*
G75*
G02*
X43105000Y-89093000I0J200000D01*
G01*
X43105000Y-88543000D01*
G75*
G02*
X43305000Y-88343000I200000J0D01*
G01*
X43705000Y-88343000D01*
G75*
G02*
X43905000Y-88543000I0J-200000D01*
G01*
G37*
%TD*%
%TO.C,R3*%
G36*
G01*
X43105000Y-91147000D02*
X43105000Y-90597000D01*
G75*
G02*
X43305000Y-90397000I200000J0D01*
G01*
X43705000Y-90397000D01*
G75*
G02*
X43905000Y-90597000I0J-200000D01*
G01*
X43905000Y-91147000D01*
G75*
G02*
X43705000Y-91347000I-200000J0D01*
G01*
X43305000Y-91347000D01*
G75*
G02*
X43105000Y-91147000I0J200000D01*
G01*
G37*
G36*
G01*
X41455000Y-91147000D02*
X41455000Y-90597000D01*
G75*
G02*
X41655000Y-90397000I200000J0D01*
G01*
X42055000Y-90397000D01*
G75*
G02*
X42255000Y-90597000I0J-200000D01*
G01*
X42255000Y-91147000D01*
G75*
G02*
X42055000Y-91347000I-200000J0D01*
G01*
X41655000Y-91347000D01*
G75*
G02*
X41455000Y-91147000I0J200000D01*
G01*
G37*
%TD*%
D21*
%TO.C,TVS1*%
X45246000Y-48895000D03*
X43146000Y-48895000D03*
%TD*%
%TO.C,F1*%
G36*
G01*
X55692500Y-51100000D02*
X55267500Y-51100000D01*
G75*
G02*
X55055000Y-50887500I0J212500D01*
G01*
X55055000Y-50087500D01*
G75*
G02*
X55267500Y-49875000I212500J0D01*
G01*
X55692500Y-49875000D01*
G75*
G02*
X55905000Y-50087500I0J-212500D01*
G01*
X55905000Y-50887500D01*
G75*
G02*
X55692500Y-51100000I-212500J0D01*
G01*
G37*
G36*
G01*
X55692500Y-52725000D02*
X55267500Y-52725000D01*
G75*
G02*
X55055000Y-52512500I0J212500D01*
G01*
X55055000Y-51712500D01*
G75*
G02*
X55267500Y-51500000I212500J0D01*
G01*
X55692500Y-51500000D01*
G75*
G02*
X55905000Y-51712500I0J-212500D01*
G01*
X55905000Y-52512500D01*
G75*
G02*
X55692500Y-52725000I-212500J0D01*
G01*
G37*
%TD*%
%TO.C,FB1*%
G36*
G01*
X44944000Y-47560000D02*
X44944000Y-47240000D01*
G75*
G02*
X45104000Y-47080000I160000J0D01*
G01*
X45499000Y-47080000D01*
G75*
G02*
X45659000Y-47240000I0J-160000D01*
G01*
X45659000Y-47560000D01*
G75*
G02*
X45499000Y-47720000I-160000J0D01*
G01*
X45104000Y-47720000D01*
G75*
G02*
X44944000Y-47560000I0J160000D01*
G01*
G37*
G36*
G01*
X43749000Y-47560000D02*
X43749000Y-47240000D01*
G75*
G02*
X43909000Y-47080000I160000J0D01*
G01*
X44304000Y-47080000D01*
G75*
G02*
X44464000Y-47240000I0J-160000D01*
G01*
X44464000Y-47560000D01*
G75*
G02*
X44304000Y-47720000I-160000J0D01*
G01*
X43909000Y-47720000D01*
G75*
G02*
X43749000Y-47560000I0J160000D01*
G01*
G37*
%TD*%
D22*
%TO.C,J1*%
X47980000Y-47215000D03*
X48780000Y-47215000D03*
X53680000Y-47215000D03*
X54480000Y-47215000D03*
X54480000Y-47215000D03*
X53680000Y-47215000D03*
X48780000Y-47215000D03*
X47980000Y-47215000D03*
D23*
X52980000Y-47215000D03*
X52480000Y-47215000D03*
X51980000Y-47215000D03*
X50980000Y-47215000D03*
X50480000Y-47215000D03*
X49980000Y-47215000D03*
X49480000Y-47215000D03*
X51480000Y-47215000D03*
%TD*%
%TO.C,R2*%
G36*
G01*
X49425000Y-50675000D02*
X48875000Y-50675000D01*
G75*
G02*
X48675000Y-50475000I0J200000D01*
G01*
X48675000Y-50075000D01*
G75*
G02*
X48875000Y-49875000I200000J0D01*
G01*
X49425000Y-49875000D01*
G75*
G02*
X49625000Y-50075000I0J-200000D01*
G01*
X49625000Y-50475000D01*
G75*
G02*
X49425000Y-50675000I-200000J0D01*
G01*
G37*
G36*
G01*
X49425000Y-52325000D02*
X48875000Y-52325000D01*
G75*
G02*
X48675000Y-52125000I0J200000D01*
G01*
X48675000Y-51725000D01*
G75*
G02*
X48875000Y-51525000I200000J0D01*
G01*
X49425000Y-51525000D01*
G75*
G02*
X49625000Y-51725000I0J-200000D01*
G01*
X49625000Y-52125000D01*
G75*
G02*
X49425000Y-52325000I-200000J0D01*
G01*
G37*
%TD*%
%TO.C,R1*%
G36*
G01*
X53535000Y-50675000D02*
X52985000Y-50675000D01*
G75*
G02*
X52785000Y-50475000I0J200000D01*
G01*
X52785000Y-50075000D01*
G75*
G02*
X52985000Y-49875000I200000J0D01*
G01*
X53535000Y-49875000D01*
G75*
G02*
X53735000Y-50075000I0J-200000D01*
G01*
X53735000Y-50475000D01*
G75*
G02*
X53535000Y-50675000I-200000J0D01*
G01*
G37*
G36*
G01*
X53535000Y-52325000D02*
X52985000Y-52325000D01*
G75*
G02*
X52785000Y-52125000I0J200000D01*
G01*
X52785000Y-51725000D01*
G75*
G02*
X52985000Y-51525000I200000J0D01*
G01*
X53535000Y-51525000D01*
G75*
G02*
X53735000Y-51725000I0J-200000D01*
G01*
X53735000Y-52125000D01*
G75*
G02*
X53535000Y-52325000I-200000J0D01*
G01*
G37*
%TD*%
D24*
%TO.C,U1*%
X52810000Y-55310000D03*
X52810000Y-54360000D03*
X52810000Y-56260000D03*
X50610000Y-56260000D03*
X50610000Y-55310000D03*
X50610000Y-54360000D03*
%TD*%
M02*
